<svg width="992" height="262" viewBox="0 0 992 262" fill="none" xmlns="http://www.w3.org/2000/svg">
<g filter="url(#filter0_d_3903_287)">
<path d="M524.701 165.44C523.486 165.44 522.335 165.625 521.206 165.912L505.201 136.093L532.586 130.979L505.116 125.866L515.068 107.937C516.198 108.204 517.348 108.41 518.563 108.41C526.448 108.41 532.863 102.249 532.863 94.6297C532.863 87.0106 526.469 80.8496 518.563 80.8496C510.678 80.8496 504.264 87.0106 504.264 94.6297C504.264 98.9424 506.373 102.762 509.591 105.288L499.021 124.634L482.271 93.4386C485.51 90.9126 487.599 87.1133 487.599 82.7801C487.599 75.1815 481.206 69 473.299 69C465.414 69 459 75.161 459 82.7801C459 90.3786 465.393 96.5601 473.299 96.5601C474.514 96.5601 475.665 96.3753 476.794 96.0878L492.799 125.907L465.414 131.021L492.735 136.114L482.932 154.083C481.802 153.816 480.652 153.611 479.437 153.611C471.552 153.611 465.137 159.772 465.137 167.391C465.137 174.989 471.531 181.171 479.437 181.171C487.322 181.171 493.736 175.01 493.736 167.391C493.736 163.078 491.627 159.258 488.409 156.732L498.915 137.284L515.729 168.561C512.49 171.087 510.401 174.887 510.401 179.22C510.401 186.818 516.794 193 524.701 193C532.586 193 539 186.839 539 179.22C538.979 171.621 532.586 165.44 524.701 165.44Z" fill="white"/>
<path d="M521.463 165.335L505.965 136.459L532.677 131.471L532.677 130.488L505.89 125.501L515.323 108.509C516.356 108.738 517.429 108.91 518.563 108.91C526.706 108.91 533.363 102.543 533.363 94.6297C533.363 86.7172 526.728 80.3496 518.563 80.3496C510.42 80.3496 503.764 86.7167 503.764 94.6297C503.764 98.9617 505.813 102.805 508.952 105.415L499.025 123.584L482.908 93.5683C486.069 90.959 488.099 87.1322 488.099 82.7801C488.099 74.8886 481.465 68.5 473.299 68.5C465.156 68.5 458.5 74.8671 458.5 82.7801C458.5 90.6715 465.134 97.0601 473.299 97.0601C474.427 97.0601 475.497 96.9071 476.537 96.6652L492.035 125.541L465.323 130.529L465.323 131.512L491.966 136.479L482.674 153.511C481.642 153.282 480.57 153.111 479.437 153.111C471.294 153.111 464.637 159.478 464.637 167.391C464.637 175.282 471.272 181.671 479.437 181.671C487.58 181.671 494.236 175.304 494.236 167.391C494.236 163.058 492.187 159.214 489.046 156.604L498.914 138.338L515.091 168.432C511.931 171.041 509.901 174.868 509.901 179.22C509.901 187.111 516.535 193.5 524.701 193.5C532.844 193.5 539.5 187.133 539.5 179.22V179.219C539.478 171.329 532.845 164.94 524.701 164.94C523.573 164.94 522.503 165.093 521.463 165.335Z" stroke="#B9BBDA"/>
</g>
<path d="M498 131L672.586 261H992" stroke="#D1D2E7" stroke-dasharray="5 3"/>
<path d="M498 131L672.586 1H992" stroke="#D1D2E7" stroke-dasharray="5 3"/>
<path d="M498 130.789L322 1.28906H0" stroke="#D1D2E7" stroke-dasharray="5 3"/>
<path d="M499 131.289L323 260.789H1" stroke="#D1D2E7" stroke-dasharray="5 3"/>
<defs>
<filter id="filter0_d_3903_287" x="438" y="60" width="122" height="166" filterUnits="userSpaceOnUse" color-interpolation-filters="sRGB">
<feFlood flood-opacity="0" result="BackgroundImageFix"/>
<feColorMatrix in="SourceAlpha" type="matrix" values="0 0 0 0 0 0 0 0 0 0 0 0 0 0 0 0 0 0 127 0" result="hardAlpha"/>
<feOffset dy="12"/>
<feGaussianBlur stdDeviation="10"/>
<feComposite in2="hardAlpha" operator="out"/>
<feColorMatrix type="matrix" values="0 0 0 0 0.615313 0 0 0 0 0.697978 0 0 0 0 0.825 0 0 0 0.1 0"/>
<feBlend mode="normal" in2="BackgroundImageFix" result="effect1_dropShadow_3903_287"/>
<feBlend mode="normal" in="SourceGraphic" in2="effect1_dropShadow_3903_287" result="shape"/>
</filter>
</defs>
</svg>
