<svg width="24" height="24" viewBox="0 0 24 24" fill="none" xmlns="http://www.w3.org/2000/svg">
<g id="9057143_menu_right_icon 1">
<path id="Vector" d="M2 18.0047C2 18.5543 2.4456 18.9999 2.9952 18.9999H11.0048C11.5544 18.9999 12 18.5543 12 18.0047C12 17.4551 11.5544 17.0095 11.0048 17.0095H2.9952C2.4456 17.0095 2 17.4551 2 18.0047Z" fill="black"/>
<path id="Vector_2" d="M2 12.0002C2 12.5499 2.4456 12.9954 2.9952 12.9954H21.0048C21.5544 12.9954 22 12.5499 22 12.0002C22 11.4506 21.5544 11.0051 21.0048 11.0051H2.9952C2.4456 11.0051 2 11.4506 2 12.0002Z" fill="black"/>
<path id="Vector_3" d="M2.9952 6.99039C2.4456 6.99039 2 6.54482 2 5.99519C2 5.44556 2.4456 5 2.9952 5H15.0048C15.5544 5 16 5.44556 16 5.99519C16 6.54482 15.5544 6.99039 15.0048 6.99039H2.9952Z" fill="black"/>
</g>
</svg>
