<svg width="134" height="122" viewBox="0 0 134 122" fill="none" xmlns="http://www.w3.org/2000/svg">
<rect width="134" height="122" fill="#F5F5F5"/>
<g id="LANDING" clip-path="url(#clip0_686_2617)">
<rect width="1920" height="7397" transform="translate(-232 -3648)" fill="white"/>
<g id="Frame 130">
<path id="Rectangle 202" d="M70.4374 78.7591C73.5567 73.7003 79.303 71 85.2462 71H104.288C113.03 71 120.93 76.9635 121.711 85.6704C124.087 112.167 111.379 122.798 99.3781 121.954H83.2737C76.5135 121.954 70.0265 118.46 67.3423 112.256C62.2804 100.556 62.7031 91.3022 70.4374 78.7591Z" fill="url(#paint0_linear_686_2617)"/>
<g id="Frame" clip-path="url(#clip1_686_2617)">
<g id="Group">
<g id="Layer 2">
<path id="Vector" d="M92.9829 117.863C94.8707 86.4132 89.7561 59.1524 78.2845 38.9932C66.8129 18.8339 49.1456 6.26714 27.2351 2.37275C18.7967 0.883713 14.3275 1.26006 12.9077 3.55089C10.9231 6.98712 16.4088 13.8923 24.0082 23.4483C35.5766 38.0114 51.4367 57.9579 46.8223 75.1555C44.0794 85.366 39.1262 92.173 32.0754 95.4129C20.0875 100.911 5.95371 94.0548 5.82464 93.9729L5.51808 94.5947C5.66329 94.5947 20.0391 101.68 32.3658 96.0347C39.594 92.7621 44.6764 85.7587 47.4838 75.3355C52.1789 57.7943 36.1897 37.7005 24.5406 22.9738C17.393 13.9741 11.746 6.87258 13.5046 3.84542C14.6502 1.88186 19.1033 1.60369 27.1221 3.0109C71.7661 10.8488 96.1291 53.7363 92.3053 117.765L92.9829 117.863Z" fill="#99A5C7"/>
<path id="Vector_2" d="M93.0633 145.648C97.5486 109.191 98.3876 66.7615 78.0744 34.4936C67.0545 16.9034 49.1292 3.1421 28.3319 1.39126C26.0892 1.19491 25.7826 -0.0486818 28.4771 0.1804C70.9268 3.78026 92.7728 43.5097 97.8552 82.5682C100.646 103.84 99.5655 125.488 96.9678 146.728C96.7258 148.593 92.7567 147.611 92.9987 145.648L93.0633 145.648Z" fill="#48728C"/>
<g id="Group_2" opacity="0.2">
<path id="Vector_3" d="M97.0314 146.549C98.5587 134.609 99.4045 122.59 99.5645 110.551C99.4145 122.672 98.5687 134.774 97.0314 146.795C96.7893 148.677 92.8203 147.678 93.0623 145.715C93.0784 147.482 96.8055 148.366 97.0314 146.549Z" fill="white"/>
<path id="Vector_4" d="M28.3301 1.19823C49.1274 2.96544 67.0528 16.7267 78.0726 34.317C91.4158 55.5889 95.643 81.1316 95.6914 106.527C95.6107 81.1807 91.3835 55.6544 78.0726 34.5297C67.0528 16.9067 49.1274 3.16179 28.3301 1.39459C27.0877 1.28005 26.4585 0.854612 26.5876 0.527351C26.7166 0.805522 27.3459 1.11642 28.3301 1.19823Z" fill="white"/>
</g>
<g id="Group_3" opacity="0.2">
<path id="Vector_5" d="M26.7186 0.394539C27.1809 0.757983 27.7472 0.959003 28.332 0.967242C49.1616 2.65263 67.0547 16.4794 78.1068 34.086C94.6285 60.2668 97.1455 93.3038 95.1125 124.328C97.0971 93.4347 94.5156 60.6268 78.0746 34.4951C67.0547 16.9048 49.1294 3.14352 28.332 1.39268C26.9445 1.26178 26.2991 0.721799 26.7186 0.394539Z" fill="#081E2B"/>
</g>
<path id="Vector_6" opacity="0.3" d="M97.8384 82.9297C92.7076 43.8712 70.8777 4.14176 28.4602 0.525532C27.8665 0.407893 27.2514 0.482298 26.7016 0.738251C26.5079 0.378264 27.0404 0.0510034 28.557 0.181907C71.0068 3.78177 92.8528 43.5112 97.9352 82.5697C100.726 103.842 99.6454 125.49 97.0478 146.729C97.0328 146.837 97.0001 146.943 96.951 147.04C99.5486 125.801 100.613 104.202 97.8384 82.9297Z" fill="#83D0FF"/>
<path id="Vector_7" d="M92.1597 152.67L94.6766 152.998C95.3549 153.016 96.0131 152.764 96.5106 152.296C97.0081 151.828 97.3054 151.181 97.3388 150.494C97.3388 150.494 101.195 132.577 100.937 121.581C100.937 119.944 100.243 118.635 98.9684 118.472L96.4514 118.144C95.1768 117.981 92.9019 120.468 92.9825 122.022C93.5634 133.084 90.159 149.561 90.159 149.561C90.0881 149.899 90.0837 150.247 90.146 150.586C90.2083 150.925 90.3361 151.249 90.522 151.538C90.7079 151.827 90.9483 152.075 91.2294 152.27C91.5104 152.464 91.8266 152.6 92.1597 152.67Z" fill="#8C1C1C"/>
<path id="Vector_8" opacity="0.3" d="M90.1917 149.562C90.1917 149.562 93.596 133.084 93.0152 122.023C92.9345 120.386 95.2095 117.981 96.4841 118.145L99.0011 118.472C99.4478 118.563 99.8574 118.788 100.177 119.117C100.496 119.447 100.71 119.866 100.792 120.321C100.501 120.045 100.136 119.863 99.7432 119.797L97.2263 119.486C95.9516 119.306 93.6767 121.794 93.7574 123.348C94.3382 134.409 90.9338 150.887 90.9338 150.887C90.852 151.281 90.852 151.688 90.9338 152.082C90.6261 151.749 90.3988 151.348 90.27 150.91C90.1412 150.473 90.1144 150.011 90.1917 149.562Z" fill="#FF3333"/>
<path id="Vector_9" opacity="0.4" d="M91.0464 151.558L93.5633 151.885C94.2432 151.903 94.9032 151.651 95.4033 151.184C95.9034 150.717 96.2041 150.07 96.2417 149.381C96.2417 149.381 100.082 131.398 99.8558 120.468C99.8574 119.846 99.7252 119.232 99.4685 118.668C99.9685 118.972 100.374 119.412 100.639 119.939C100.905 120.465 101.019 121.057 100.969 121.646C101.195 132.642 97.3388 150.559 97.3388 150.559C97.3053 151.247 97.0081 151.893 96.5106 152.361C96.0131 152.829 95.3548 153.081 94.6766 153.063L92.1596 152.736C91.785 152.673 91.4319 152.516 91.133 152.279C90.8341 152.041 90.599 151.731 90.4494 151.378C90.6404 151.462 90.8409 151.522 91.0464 151.558Z" fill="#FF3333"/>
<path id="Vector_10" opacity="0.3" d="M90.3848 148.561L92.8695 148.871C93.5516 148.898 94.2163 148.65 94.7182 148.18C95.2202 147.711 95.5184 147.06 95.5478 146.368C95.5478 146.368 99.1619 129.563 99.178 118.551C100.34 118.829 100.937 120.187 100.969 121.611C101.195 132.607 97.3387 150.524 97.3387 150.524C97.3052 151.211 97.008 151.858 96.5105 152.326C96.013 152.794 95.3547 153.046 94.6765 153.028L92.1595 152.7C91.4927 152.552 90.9112 152.141 90.5423 151.558C90.1734 150.975 90.0472 150.268 90.1911 149.591C90.1911 149.591 90.2718 149.199 90.3848 148.561Z" fill="#240707"/>
<path id="Vector_11" d="M84.2698 122.826C84.2698 124.153 84.6577 125.45 85.3846 126.553C86.1115 127.657 87.1446 128.516 88.3534 129.024C89.5621 129.532 90.8922 129.665 92.1754 129.406C93.4586 129.147 94.6373 128.508 95.5625 127.57C96.4876 126.632 97.1176 125.436 97.3729 124.135C97.6281 122.833 97.4971 121.485 96.9965 120.259C96.4958 119.033 95.6479 117.985 94.56 117.248C93.4722 116.511 92.1932 116.117 90.8849 116.117C90.0156 116.115 89.1544 116.287 88.3509 116.623C87.5473 116.96 86.8172 117.454 86.2025 118.077C85.5878 118.701 85.1006 119.441 84.769 120.256C84.4373 121.071 84.2676 121.944 84.2698 122.826Z" fill="url(#paint1_linear_686_2617)"/>
<path id="Vector_12" d="M90.9173 122.105L86.8837 118.08C88.0752 117.265 89.4803 116.832 90.9173 116.836C91.7243 116.844 92.5248 116.982 93.2891 117.245L90.9173 122.105Z" fill="url(#paint2_linear_686_2617)"/>
<path id="Vector_13" d="M90.0941 122.692L90.1748 122.692L85.8508 126.374C85.1661 125.094 84.8739 123.635 85.0118 122.185C85.0931 121.365 85.3057 120.563 85.641 119.813L90.0941 122.692Z" fill="url(#paint3_linear_686_2617)"/>
<path id="Vector_14" d="M0.224471 92.5333C0.595564 91.8133 1.41841 91.8133 2.209 92.026C1.99164 91.8216 1.84927 91.5482 1.8053 91.2509C1.76132 90.9535 1.81835 90.6499 1.96699 90.3897C2.31763 89.9403 2.78932 89.6036 3.32487 89.4206C3.86041 89.2376 4.43679 89.2162 4.98413 89.3588C4.98413 89.3588 -0.211172 90.3406 5.17773 93.466L5.17773 93.5969L4.59689 93.5969L4.48397 93.5969L4.32261 93.5969L3.96765 93.4005C-0.792012 91.0115 0.902116 95.6913 0.902116 95.6913C0.501415 95.2869 0.224338 94.7738 0.104133 94.2136C-0.0160723 93.6534 0.0257081 93.07 0.224471 92.5333Z" fill="#908ADE"/>
<path id="Vector_15" d="M91.6599 122.822L91.5792 122.822L95.3547 118.551C96.2104 119.719 96.6996 121.122 96.7584 122.576C96.8023 123.4 96.704 124.225 96.468 125.014L91.6599 122.822Z" fill="url(#paint4_linear_686_2617)"/>
<path id="Vector_16" d="M91.2557 113.072L96.2251 113.399C96.346 113.408 96.4673 113.393 96.5823 113.354C96.6972 113.315 96.8035 113.254 96.895 113.173C96.9864 113.092 97.0613 112.994 97.1152 112.884C97.1692 112.774 97.2012 112.654 97.2093 112.532C97.2204 112.408 97.2069 112.283 97.1696 112.165C97.1324 112.046 97.0721 111.936 96.9925 111.842C96.9128 111.747 96.8153 111.67 96.7057 111.614C96.5961 111.559 96.4766 111.526 96.3542 111.517L91.3848 111.19C91.2627 111.181 91.1401 111.197 91.0241 111.237C90.9082 111.277 90.8012 111.34 90.7095 111.422C90.6179 111.504 90.5433 111.604 90.4903 111.716C90.4372 111.828 90.4067 111.95 90.4006 112.074C90.3918 112.196 90.407 112.319 90.4453 112.436C90.4836 112.552 90.5442 112.66 90.6236 112.753C90.7031 112.846 90.7998 112.922 90.9083 112.976C91.0168 113.031 91.1349 113.064 91.2557 113.072Z" fill="#48728C"/>
<path id="Vector_17" d="M90.481 83.7625L95.3213 82.4043C95.5556 82.332 95.7533 82.171 95.8735 81.9546C95.9937 81.7382 96.0271 81.4832 95.9667 81.2426C95.8989 81.0026 95.7407 80.7994 95.5263 80.6769C95.3119 80.5544 95.0586 80.5225 94.8211 80.588L89.9808 81.9462C89.7465 82.0185 89.5487 82.1795 89.4285 82.3959C89.3083 82.6123 89.275 82.8673 89.3354 83.1079C89.4031 83.3479 89.5613 83.5511 89.7757 83.6736C89.9902 83.7961 90.2435 83.828 90.481 83.7625Z" fill="#48728C"/>
<path id="Vector_18" d="M84.1253 55.4551L88.6268 53.377C88.738 53.3245 88.8377 53.2499 88.9201 53.1577C89.0025 53.0655 89.0658 52.9575 89.1064 52.8401C89.147 52.7227 89.164 52.5983 89.1565 52.4741C89.1489 52.3499 89.1169 52.2285 89.0624 52.117C88.9545 51.8964 88.7662 51.727 88.5374 51.6446C88.3086 51.5622 88.0572 51.5731 87.8362 51.6752L83.3347 53.8352C83.1131 53.9449 82.9422 54.1376 82.858 54.3726C82.7737 54.6076 82.7827 54.8667 82.8829 55.0951C83.0017 55.3087 83.1987 55.4663 83.4313 55.5336C83.6638 55.601 83.9131 55.5728 84.1253 55.4551Z" fill="#48728C"/>
<path id="Vector_19" d="M70.7 30.6468L74.1044 26.9651C74.1908 26.8783 74.2593 26.7751 74.3061 26.6614C74.3529 26.5476 74.377 26.4256 74.377 26.3024C74.377 26.1791 74.3529 26.0571 74.3061 25.9434C74.2593 25.8296 74.1908 25.7264 74.1044 25.6397C74.0189 25.5521 73.9171 25.4826 73.805 25.4351C73.6928 25.3877 73.5725 25.3633 73.451 25.3633C73.3295 25.3633 73.2091 25.3877 73.097 25.4351C72.9848 25.4826 72.883 25.5521 72.7975 25.6397L69.3932 29.3377C69.3068 29.4244 69.2383 29.5276 69.1915 29.6414C69.1447 29.7551 69.1207 29.8772 69.1207 30.0004C69.1207 30.1237 69.1447 30.2457 69.1915 30.3594C69.2383 30.4732 69.3068 30.5764 69.3932 30.6631C69.4786 30.7517 69.5809 30.8217 69.6938 30.869C69.8067 30.9164 69.9279 30.94 70.0501 30.9385C70.1722 30.9369 70.2928 30.9103 70.4045 30.8601C70.5163 30.81 70.6168 30.7374 70.7 30.6468Z" fill="#48728C"/>
<path id="Vector_20" d="M51.6134 13.1086L53.969 8.65781C54.0284 8.54955 54.0659 8.43039 54.0794 8.30727C54.0928 8.18415 54.082 8.05955 54.0474 7.94073C54.0129 7.82192 53.9553 7.71127 53.8782 7.61526C53.801 7.51924 53.7057 7.43977 53.598 7.3815C53.3795 7.26562 53.1247 7.24187 52.8891 7.31541C52.6534 7.38894 52.4559 7.55382 52.3395 7.77421L49.9838 12.225C49.9245 12.3332 49.887 12.4524 49.8735 12.5755C49.8601 12.6986 49.8709 12.8232 49.9055 12.942C49.94 13.0608 49.9976 13.1715 50.0747 13.2675C50.1519 13.3635 50.2471 13.443 50.3549 13.5013C50.5734 13.6171 50.8282 13.6409 51.0638 13.5674C51.2995 13.4938 51.4969 13.3289 51.6134 13.1086Z" fill="#48728C"/>
<path id="Vector_21" d="M26.4511 3.26099L27.083 0.587721C27.1806 0.174681 27.5899 -0.0798933 27.9972 0.0191163L28.3267 0.0992166C28.734 0.198226 28.985 0.613327 28.8873 1.02637L28.2555 3.69964C28.1579 4.11268 27.7486 4.36725 27.3413 4.26824L27.0118 4.18814C26.6045 4.08913 26.3535 3.67403 26.4511 3.26099Z" fill="#48728C"/>
<path id="Vector_22" opacity="0.3" d="M91.4822 117.191C90.3682 117.201 89.2756 117.503 88.3108 118.067C87.346 118.632 86.5418 119.441 85.9765 120.415C85.4113 121.388 85.1041 122.494 85.085 123.623C85.0659 124.753 85.3354 125.869 85.8675 126.861C85.2384 126.166 84.765 125.341 84.4796 124.443C84.1943 123.545 84.1038 122.595 84.2143 121.658C84.3249 120.721 84.6338 119.82 85.12 119.015C85.6062 118.211 86.2582 117.523 87.0312 116.998C87.8042 116.473 88.68 116.123 89.5986 115.974C90.5172 115.824 91.4568 115.877 92.3531 116.13C93.2494 116.383 94.0811 116.83 94.7914 117.439C95.5016 118.049 96.0734 118.807 96.4678 119.662C95.8703 118.9 95.1127 118.282 94.2502 117.855C93.3878 117.428 92.4421 117.201 91.4822 117.191Z" fill="#94AFFF"/>
<path id="Vector_23" d="M3.4041 93.7618C3.35152 94.6151 3.57382 95.4627 4.03753 96.1767C4.50123 96.8908 5.18121 97.4326 5.97498 97.7207C6.76876 98.0087 7.63335 98.0273 8.43846 97.7737C9.24356 97.52 9.94558 97.0079 10.4387 96.3144C10.4913 95.4611 10.269 94.6135 9.80527 93.8995C9.34156 93.1854 8.66159 92.6435 7.86781 92.3555C7.07403 92.0675 6.20947 92.0489 5.40436 92.3025C4.59925 92.5562 3.89724 93.0683 3.4041 93.7618Z" fill="#4E488C"/>
<path id="Vector_24" d="M3.40441 93.7641C3.82757 92.9957 4.52658 92.4223 5.356 92.1632C6.18543 91.9041 7.08139 91.9794 7.85751 92.3733C8.09134 92.4515 8.31806 92.55 8.53516 92.6678C8.44058 93.67 8.0943 94.6309 7.52939 95.4587C6.96447 96.2866 6.19977 96.9538 5.30827 97.3967C4.6291 97.1034 4.06962 96.5828 3.72316 95.9217C3.37669 95.2607 3.2642 94.4991 3.40441 93.7641Z" fill="#5D7FB5"/>
</g>
</g>
</g>
</g>
<g id="Frame_2" clip-path="url(#clip2_686_2617)">
<path id="Vector_25" d="M12.5641 99.2509L12.0603 99.2474L12.1084 91.2878L12.6265 91.3107L15.2343 92.6065L15.3284 96.9753L12.5641 99.2509Z" fill="black"/>
<path id="Vector_26" d="M33.6917 92.1261L33.6977 92.1322L33.6495 98.7166C33.6819 98.758 33.7223 98.7925 33.7684 98.8179C33.8144 98.8433 33.8651 98.8591 33.9174 98.8643L35.2372 98.8699L35.2883 92.0047L33.9746 91.9955C33.868 92.0029 33.7679 92.0489 33.6929 92.1249L33.6917 92.1261Z" fill="black"/>
<path id="Vector_27" d="M5.17929 98.2884C4.74074 94.8659 5.16584 90.737 6.12935 89.0647C6.40464 88.5869 6.69415 88.349 6.9786 88.351L4.327 88.3325C4.04256 88.3305 3.75425 88.5696 3.47776 89.0462C2.51426 90.716 2.09157 94.845 2.5289 98.2711C2.85043 100.714 3.51331 102.118 4.22556 102.134L6.87715 102.153C6.16967 102.146 5.4996 100.735 5.1853 98.2921L5.17929 98.2884Z" fill="black"/>
<path id="Vector_28" d="M5.31008 88.4225C6.65876 88.4315 7.97485 88.8402 9.09189 89.5971C10.2089 90.3539 11.0767 91.4248 11.5855 92.6744C12.0943 93.9239 12.2212 95.2959 11.9502 96.6169C11.6793 97.9378 11.0225 99.1484 10.0631 100.095C9.10368 101.042 7.8847 101.683 6.56033 101.937C5.23596 102.191 3.86571 102.046 2.62291 101.521C1.3801 100.996 0.320573 100.114 -0.421658 98.9875C-1.16389 97.8607 -1.55548 96.5394 -1.54689 95.1907C-1.53538 93.3832 -0.806631 91.655 0.479172 90.3858C1.76497 89.1166 3.5026 88.4105 5.31008 88.4225Z" fill="#BDC9D9"/>
<path id="Vector_29" d="M-0.0850179 97.7876C-0.0953849 99.5039 1.97224 101.218 3.64325 100.946C4.5795 100.794 5.04871 100.139 5.05347 99.3507C5.05823 98.5624 4.5855 97.6057 3.6327 96.9048C2.64152 96.1746 0.890597 95.708 0.0935663 96.9572C-0.0257625 97.2195 -0.088275 97.5041 -0.0898679 97.7924L-0.0850179 97.7876Z" fill="#F6FBFF"/>
<path id="Vector_30" d="M-0.884418 92.319C0.290384 91.6047 1.63488 91.2171 3.01021 91.1963C4.38553 91.1754 5.74183 91.5221 6.93904 92.2006C8.13624 92.879 9.13094 93.8646 9.8204 95.0555C10.5099 96.2464 10.8691 97.5994 10.861 98.9749C10.8618 99.0364 10.8579 99.0978 10.8551 99.1581C11.4032 98.3861 11.7844 97.5082 11.9743 96.5804C12.1642 95.6525 12.1587 94.6951 11.958 93.7692C11.7574 92.8433 11.366 91.9691 10.809 91.2025C10.2519 90.4358 9.5413 89.7936 8.7225 89.3165C7.90369 88.8395 6.99464 88.5383 6.05329 88.432C5.11195 88.3257 4.15897 88.4167 3.25511 88.6992C2.35125 88.9816 1.51635 89.4494 0.803627 90.0727C0.0909059 90.6959 -0.483994 91.461 -0.884418 92.319Z" fill="#92A4BC"/>
<path id="Vector_31" d="M-0.376172 95.4419C-0.126014 95.5329 -0.0657305 95.7297 -0.186534 95.7747C-0.341173 95.8339 -0.669977 95.5929 -0.673983 95.4579C-0.657812 95.3749 -0.471177 95.4063 -0.376172 95.4419Z" fill="#1D1F20"/>
<path id="Vector_32" d="M-0.175308 98.2163C-0.012935 98.473 0.0546397 98.6603 -0.0212559 98.6537C-0.171835 98.6394 -0.584665 97.9422 -0.51165 97.827C-0.445164 97.795 -0.178902 98.2126 -0.175308 98.2163Z" fill="#1D1F20"/>
<path id="Vector_33" d="M0.205177 97.3564C0.453161 97.6076 0.511984 97.8467 0.374554 97.8506C0.167189 97.8588 -0.2046 97.3511 -0.169775 97.173C-0.119711 97.0661 0.122501 97.2751 0.205177 97.3564Z" fill="#1D1F20"/>
<path id="Vector_34" d="M0.0312583 97.8625C0.25372 98.1485 0.29587 98.3537 0.185057 98.3409C0.00318543 98.3191 -0.385024 97.7367 -0.332215 97.5743C-0.262983 97.4868 0.0288769 97.8577 0.0312583 97.8625Z" fill="#1D1F20"/>
<path id="Vector_35" d="M0.33605 96.7359C0.615662 96.9391 0.680359 97.2035 0.518678 97.2313C0.314761 97.2673 -0.0673966 96.8801 -0.0419808 96.6633C-0.0062781 96.5394 0.230452 96.658 0.33605 96.7359Z" fill="#1D1F20"/>
<path id="Vector_36" d="M0.428528 96.0337C0.712229 96.1586 0.799788 96.4292 0.640226 96.5052C0.449226 96.5979 0.036361 96.3058 0.0437196 96.0852C0.071182 95.9287 0.313099 95.9871 0.428528 96.0337Z" fill="#1D1F20"/>
<path id="Vector_37" d="M0.194095 99.4397C0.398645 99.6979 0.390041 99.7256 0.383978 99.7315C0.249559 99.6483 0.13403 99.5379 0.0448304 99.4074C-0.0701855 99.2916 -0.15824 99.1518 -0.213046 98.9982L-0.206983 98.9922C-0.058985 99.1279 0.0753504 99.2778 0.194095 99.4397Z" fill="#1D1F20"/>
<path id="Vector_38" d="M-0.0810119 99.2983C-0.0212143 99.3758 0.0361741 99.4534 0.0996094 99.5273C-0.0559401 99.3382 -0.259278 99.0789 -0.403915 98.879C-0.421623 98.8545 -0.43797 98.829 -0.452874 98.8027L-0.443288 98.8124C-0.317689 98.9712 -0.204187 99.1371 -0.0810119 99.2983Z" fill="#1D1F20"/>
<path id="Vector_39" d="M0.480225 99.3467C0.672912 99.5734 0.74906 99.7379 0.656349 99.7215C0.464893 99.6901 -0.0351986 99.0719 0.0617326 98.9882C0.147416 98.9707 0.38925 99.2424 0.480225 99.3467Z" fill="#1D1F20"/>
<path id="Vector_40" d="M0.759912 99.0051C0.992322 99.2405 1.07047 99.4725 0.919878 99.4606C0.6958 99.4422 0.238602 98.9062 0.315488 98.7489C0.388241 98.677 0.626949 98.868 0.759912 99.0051Z" fill="#1D1F20"/>
<path id="Vector_41" d="M1.21386 97.693C1.5272 97.8989 1.59166 98.2018 1.39851 98.2511C1.15466 98.3145 0.713535 97.9113 0.753603 97.6632C0.808823 97.5009 1.06019 97.5906 1.21386 97.693Z" fill="#1D1F20"/>
<path id="Vector_42" d="M1.0111 98.4313C1.2977 98.6756 1.3516 98.9315 1.18394 98.9508C0.940287 98.9804 0.493551 98.5084 0.555154 98.2871C0.620967 98.167 0.869593 98.3122 1.0111 98.4313Z" fill="#1D1F20"/>
<path id="Vector_43" d="M1.35724 96.8147C1.69861 96.9713 1.77368 97.3142 1.55383 97.3946C1.29894 97.488 0.876589 97.1693 0.898702 96.9006C0.945595 96.7202 1.19137 96.7388 1.35724 96.8147Z" fill="#1D1F20"/>
<path id="Vector_44" d="M1.47698 94.8482C1.80474 94.8625 1.96791 95.1879 1.74494 95.384C1.52198 95.5801 1.05744 95.4612 1.03881 95.1537C1.05825 94.9284 1.30709 94.8385 1.47698 94.8482Z" fill="#1D1F20"/>
<path id="Vector_45" d="M1.45235 95.8607C1.79654 95.9475 1.89081 96.3049 1.68393 96.4324C1.43834 96.5838 0.998631 96.3445 1.00156 96.0588C1.03174 95.8517 1.28266 95.8173 1.45235 95.8607Z" fill="#1D1F20"/>
<path id="Vector_46" d="M0.897559 100.275L1.12538 100.472L0.974219 100.355C0.818334 100.222 0.610878 100.045 0.461071 99.9032L0.416742 99.8583L0.427527 99.8693C0.591885 99.997 0.740476 100.14 0.897559 100.275Z" fill="#1D1F20"/>
<path id="Vector_47" d="M1.23318 100.313C1.42265 100.473 1.51112 100.594 1.4605 100.594C1.32181 100.606 0.684947 100.082 0.726479 99.9909L0.737392 99.9801C0.919436 100.064 1.08685 100.176 1.23318 100.313Z" fill="#1D1F20"/>
<path id="Vector_48" d="M1.57748 100.052C1.82221 100.244 1.9199 100.433 1.77284 100.434C1.52088 100.443 0.958481 99.9632 1.06296 99.8265C1.15009 99.7693 1.41675 99.923 1.57748 100.052Z" fill="#1D1F20"/>
<path id="Vector_49" d="M2.17422 98.6933C2.49254 98.8751 2.59304 99.1976 2.35637 99.2683C2.06294 99.3567 1.58794 98.9749 1.64744 98.7029C1.71961 98.5286 2.00006 98.592 2.17422 98.6933Z" fill="#1D1F20"/>
<path id="Vector_50" d="M1.90392 99.4917C2.18838 99.6901 2.27959 99.9547 2.07208 99.987C1.78495 100.031 1.29092 99.6055 1.37541 99.3879C1.46299 99.256 1.7479 99.3797 1.90392 99.4917Z" fill="#1D1F20"/>
<path id="Vector_51" d="M2.38373 97.7204C2.73355 97.8735 2.8458 98.2467 2.57515 98.3557C2.3045 98.4647 1.82057 98.1636 1.86109 97.8409C1.9275 97.622 2.2046 97.6432 2.38373 97.7204Z" fill="#1D1F20"/>
<path id="Vector_52" d="M2.59815 95.425C2.9799 95.4795 3.13163 95.9024 2.84236 96.1017C2.5785 96.283 2.10707 96.1086 2.102 95.7494C2.13133 95.4832 2.41027 95.3996 2.59815 95.425Z" fill="#1D1F20"/>
<path id="Vector_53" d="M2.53003 96.6181C2.90422 96.728 3.02823 97.1496 2.72965 97.2933C2.4637 97.4216 1.99991 97.1797 2.01639 96.8448C2.06368 96.5992 2.34354 96.5626 2.53003 96.6181Z" fill="#1D1F20"/>
<path id="Vector_54" d="M2.59232 94.2014C2.66749 94.1926 2.74358 94.2071 2.81032 94.2429C2.87706 94.2787 2.93122 94.3341 2.96551 94.4016C2.99979 94.4691 3.01255 94.5455 3.00204 94.6205C2.99154 94.6954 2.95829 94.7653 2.90678 94.8208C2.67625 95.0723 2.14884 94.9866 2.11856 94.6116C2.1318 94.4962 2.18781 94.3901 2.27553 94.3142C2.36325 94.2383 2.47629 94.198 2.59232 94.2014Z" fill="#1D1F20"/>
<path id="Vector_55" d="M2.08887 101.034C2.18567 101.079 2.27677 101.135 2.36026 101.202C2.36026 101.202 2.34218 101.203 2.23041 101.148L1.88316 100.968L1.68257 100.852C1.62171 100.823 1.56581 100.785 1.51693 100.738L1.53259 100.739C1.64923 100.785 2.04322 101.009 2.08887 101.034Z" fill="#1D1F20"/>
<path id="Vector_56" d="M2.47369 100.905C2.70553 101.036 2.81569 101.155 2.72396 101.176C2.52963 101.221 1.79802 100.82 1.89021 100.721L1.8987 100.713C2.00135 100.681 2.2959 100.805 2.47369 100.905Z" fill="#1D1F20"/>
<path id="Vector_57" d="M2.85586 100.443C3.14422 100.594 3.2454 100.806 3.05348 100.851C2.79032 100.917 2.15352 100.582 2.26808 100.373C2.37365 100.257 2.67324 100.345 2.85586 100.443Z" fill="#1D1F20"/>
<path id="Vector_58" d="M3.47304 98.6575C3.84827 98.7951 3.94845 99.1706 3.65116 99.2987C3.35388 99.4268 2.83481 99.158 2.89474 98.8137C2.96967 98.5816 3.27822 98.5838 3.47304 98.6575Z" fill="#1D1F20"/>
<path id="Vector_59" d="M3.19857 99.6637C3.53872 99.8215 3.63214 100.12 3.37244 100.211C3.07294 100.308 2.52995 100.007 2.61487 99.7174C2.70156 99.5336 3.00866 99.5756 3.19857 99.6637Z" fill="#1D1F20"/>
<path id="Vector_60" d="M3.67431 97.4743C4.06777 97.5867 4.18442 98.0299 3.86163 98.1903C3.53884 98.3508 3.07511 98.0993 3.11228 97.7319C3.16938 97.4575 3.47578 97.4162 3.67431 97.4743Z" fill="#1D1F20"/>
<path id="Vector_61" d="M3.83218 94.7914C3.91902 94.7908 4.00399 94.8168 4.07562 94.866C4.14725 94.9151 4.20209 94.9851 4.23274 95.0664C4.26339 95.1477 4.26838 95.2364 4.24702 95.3205C4.22567 95.4047 4.17901 95.4803 4.11334 95.537C3.83711 95.7713 3.32816 95.6219 3.31137 95.2096C3.3178 95.1478 3.33642 95.0879 3.36614 95.0334C3.39586 94.9789 3.43609 94.9308 3.48451 94.8919C3.53293 94.853 3.58859 94.8241 3.64826 94.8068C3.70793 94.7896 3.77044 94.7843 3.83218 94.7914Z" fill="#1D1F20"/>
<path id="Vector_62" d="M3.79624 96.1657C4.20196 96.2445 4.34143 96.7011 4.02918 96.9134C3.74234 97.1079 3.24091 96.9103 3.24935 96.5114C3.2609 96.4519 3.28449 96.3955 3.31867 96.3454C3.35285 96.2954 3.39689 96.2529 3.44811 96.2205C3.49932 96.1881 3.55662 96.1666 3.61648 96.1572C3.67635 96.1477 3.73752 96.1506 3.79624 96.1657Z" fill="#1D1F20"/>
<path id="Vector_63" d="M3.44434 101.5C3.55156 101.528 3.65403 101.573 3.7485 101.631C3.67938 101.699 2.83379 101.41 2.80756 101.362L2.82211 101.347C3.03387 101.378 3.24222 101.429 3.44434 101.5Z" fill="#1D1F20"/>
<path id="Vector_64" d="M3.86083 101.182C4.11345 101.266 4.23688 101.383 4.13768 101.443C3.94411 101.562 3.17285 101.339 3.21241 101.175L3.23424 101.153C3.34205 101.064 3.66717 101.117 3.86083 101.182Z" fill="#1D1F20"/>
<path id="Vector_65" d="M4.59474 99.5299C4.95452 99.6325 5.06469 99.9503 4.79255 100.106C4.47808 100.287 3.89237 100.075 3.96924 99.7208C4.06461 99.4949 4.3914 99.4719 4.59474 99.5299Z" fill="#1D1F20"/>
<path id="Vector_66" d="M4.25933 100.502C4.57453 100.6 4.68772 100.819 4.48453 100.934C4.17613 101.106 3.53995 100.869 3.61621 100.617L3.62599 100.593C3.73915 100.416 4.07527 100.444 4.25933 100.502Z" fill="#1D1F20"/>
<path id="Vector_67" d="M4.85203 98.3344C5.24198 98.4288 5.35892 98.8237 5.05397 99.0241C4.74902 99.2245 4.19216 99.0241 4.24399 98.6255C4.31921 98.3452 4.64621 98.286 4.85203 98.3344Z" fill="#1D1F20"/>
<path id="Vector_68" d="M5.11344 95.5273C5.20443 95.5319 5.29193 95.5639 5.36445 95.6191C5.43697 95.6743 5.49113 95.7502 5.51981 95.8367C5.54849 95.9232 5.55035 96.0163 5.52515 96.1038C5.49994 96.1913 5.44886 96.2692 5.3786 96.3271C5.30544 96.3838 5.21825 96.4195 5.12634 96.4305C5.03443 96.4414 4.94124 96.4272 4.85671 96.3894C4.77218 96.3516 4.69949 96.2915 4.64638 96.2156C4.59328 96.1398 4.56176 96.0509 4.55518 95.9585C4.56243 95.8931 4.58278 95.8298 4.61501 95.7724C4.64724 95.715 4.69069 95.6647 4.74277 95.6245C4.79486 95.5843 4.85452 95.5549 4.9182 95.5382C4.98188 95.5215 5.04827 95.5178 5.11344 95.5273Z" fill="#1D1F20"/>
<path id="Vector_69" d="M5.02592 96.9807C5.4377 97.0534 5.56742 97.5293 5.24064 97.7512C4.93201 97.9624 4.41974 97.7635 4.43915 97.3442C4.45326 97.2815 4.47972 97.2222 4.51699 97.1699C4.55425 97.1176 4.60158 97.0732 4.6562 97.0393C4.71082 97.0055 4.77165 96.9829 4.83513 96.9728C4.89861 96.9627 4.96347 96.9654 5.02592 96.9807Z" fill="#1D1F20"/>
<path id="Vector_70" d="M5.10604 94.032C5.19765 94.0348 5.28641 94.0646 5.36128 94.1175C5.43615 94.1704 5.49382 94.2442 5.5271 94.3296C5.56037 94.415 5.56779 94.5083 5.54843 94.5979C5.52907 94.6875 5.48378 94.7693 5.4182 94.8333C5.34847 94.8947 5.26331 94.9359 5.17188 94.9525C5.08045 94.969 4.9862 94.9604 4.89927 94.9274C4.81234 94.8945 4.73601 94.8385 4.67849 94.7654C4.62097 94.6924 4.58443 94.605 4.5728 94.5128C4.57411 94.4455 4.5892 94.3792 4.61714 94.318C4.64508 94.2568 4.68528 94.2019 4.73525 94.1569C4.78522 94.1118 4.8439 94.0775 4.90767 94.056C4.97145 94.0345 5.03896 94.0264 5.10604 94.032Z" fill="#1D1F20"/>
<path id="Vector_71" d="M4.92041 101.637C5.14685 101.665 5.27797 101.708 5.23919 101.741C5.14704 101.832 4.24709 101.762 4.23319 101.668L4.2526 101.649C4.473 101.608 4.69861 101.604 4.92041 101.637Z" fill="#1D1F20"/>
<path id="Vector_72" d="M5.34864 101.117C5.63043 101.16 5.75622 101.287 5.61819 101.39C5.36754 101.58 4.61948 101.506 4.65571 101.295L4.67161 101.258C4.79784 101.112 5.1415 101.089 5.34864 101.117Z" fill="#1D1F20"/>
<path id="Vector_73" d="M6.03473 99.1165C6.40323 99.1697 6.5254 99.4972 6.25893 99.7123C5.9295 99.9752 5.35791 99.8205 5.39613 99.4785L5.40238 99.4412C5.49696 99.1489 5.84206 99.0862 6.03473 99.1165Z" fill="#1D1F20"/>
<path id="Vector_74" d="M5.73146 100.246C6.07949 100.298 6.19375 100.537 5.94804 100.708C5.60914 100.942 5.00004 100.81 5.06448 100.519L5.0743 100.49C5.18658 100.259 5.53757 100.219 5.73146 100.246Z" fill="#1D1F20"/>
<path id="Vector_75" d="M6.26414 97.7857C6.68805 97.8465 6.79991 98.2848 6.45735 98.5247C6.1148 98.7646 5.61438 98.5996 5.65309 98.178C5.68824 98.0485 5.77019 97.9367 5.88306 97.8643C5.99594 97.7918 6.13173 97.7638 6.26414 97.7857Z" fill="#1D1F20"/>
<path id="Vector_76" d="M6.44165 94.7821C6.53847 94.7892 6.63088 94.8255 6.70663 94.8863C6.78239 94.9471 6.83791 95.0294 6.86584 95.1224C6.89378 95.2154 6.8928 95.3147 6.86304 95.4071C6.83329 95.4994 6.77616 95.5806 6.69922 95.6397C6.63731 95.6934 6.56292 95.7307 6.48284 95.7483C6.40275 95.7658 6.31953 95.763 6.24077 95.7401C6.16201 95.7172 6.09022 95.675 6.03195 95.6173C5.97368 95.5595 5.93079 95.4881 5.90719 95.4095C5.8836 95.331 5.88006 95.2478 5.89688 95.1676C5.9137 95.0873 5.95036 95.0126 6.00351 94.9502C6.05665 94.8878 6.1246 94.8397 6.20113 94.8104C6.27766 94.781 6.36035 94.7713 6.44165 94.7821Z" fill="#1D1F20"/>
<path id="Vector_77" d="M6.40166 96.3206C6.49139 96.3272 6.577 96.361 6.6471 96.4175C6.71721 96.4739 6.76849 96.5504 6.79414 96.6366C6.81978 96.7229 6.81857 96.8149 6.79067 96.9004C6.76277 96.9859 6.70949 97.0609 6.63792 97.1153C6.32175 97.3771 5.80442 97.2192 5.81079 96.7624C5.81917 96.694 5.84131 96.628 5.87586 96.5683C5.91042 96.5087 5.95669 96.4567 6.01188 96.4154C6.06708 96.3741 6.13006 96.3444 6.19704 96.3281C6.26403 96.3118 6.33363 96.3093 6.40166 96.3206Z" fill="#1D1F20"/>
<path id="Vector_78" d="M6.00438 101.754C6.10689 101.744 6.20939 101.736 6.31195 101.719C6.01399 101.759 5.61478 101.801 5.31576 101.818L5.32902 101.817C5.4436 101.804 5.72579 101.78 6.00438 101.754Z" fill="#1D1F20"/>
<path id="Vector_79" d="M6.43973 101.421C6.66161 101.403 6.78437 101.433 6.74667 101.489C6.64817 101.632 5.77354 101.76 5.75141 101.633L5.7697 101.598C5.97748 101.491 6.20611 101.431 6.43973 101.421Z" fill="#1D1F20"/>
<path id="Vector_80" d="M7.19831 99.7066C7.52737 99.7053 7.63684 99.9399 7.4089 100.163C7.11667 100.451 6.54786 100.435 6.55204 100.141C6.55385 100.118 6.55803 100.095 6.56451 100.073C6.66247 99.8186 6.99341 99.7052 7.19831 99.7066Z" fill="#1D1F20"/>
<path id="Vector_81" d="M6.8524 100.713C7.12725 100.708 7.24105 100.823 7.11366 100.961C6.88673 101.216 6.19803 101.292 6.17407 101.069C6.17397 101.043 6.17991 101.019 6.19138 100.996C6.30939 100.815 6.65472 100.714 6.8524 100.713Z" fill="#1D1F20"/>
<path id="Vector_82" d="M7.46372 98.472C7.82644 98.4854 7.93155 98.8441 7.65036 99.1001C7.33403 99.3884 6.82843 99.2836 6.84984 98.9318L6.85611 98.892C6.89713 98.7654 6.97824 98.6556 7.0872 98.5792C7.19615 98.5027 7.32705 98.4638 7.46012 98.4684L7.46372 98.472Z" fill="#1D1F20"/>
<path id="Vector_83" d="M7.7284 95.5571C7.81952 95.571 7.9045 95.6116 7.97262 95.6738C8.04075 95.7359 8.08899 95.8168 8.11126 95.9063C8.13353 95.9958 8.12884 96.0898 8.09777 96.1765C8.06671 96.2633 8.01066 96.3389 7.93669 96.3938C7.8701 96.4531 7.78747 96.4915 7.69914 96.5041C7.61082 96.5166 7.52072 96.5029 7.44014 96.4645C7.35956 96.4261 7.29208 96.3648 7.24614 96.2882C7.20021 96.2117 7.17787 96.1233 7.18192 96.0342C7.1862 95.9668 7.20376 95.901 7.2336 95.8406C7.26343 95.7801 7.30494 95.7261 7.35573 95.6818C7.40653 95.6374 7.46561 95.6036 7.52957 95.5822C7.59353 95.5608 7.6611 95.5522 7.7284 95.5571Z" fill="#1D1F20"/>
<path id="Vector_84" d="M7.64846 97.0759C8.03039 97.1014 8.14342 97.5458 7.84404 97.8221C7.54466 98.0985 7.06583 97.9505 7.06927 97.5805L7.07196 97.5347C7.09462 97.4006 7.16597 97.2796 7.27235 97.1949C7.37874 97.1103 7.51266 97.0679 7.64846 97.0759Z" fill="#1D1F20"/>
<path id="Vector_85" d="M7.72691 94.0171C7.82426 94.0307 7.91538 94.073 7.9887 94.1386C8.06202 94.2041 8.11423 94.29 8.13871 94.3852C8.16319 94.4804 8.15884 94.5807 8.12619 94.6734C8.09355 94.7661 8.0341 94.847 7.95537 94.9058C7.88175 94.9518 7.79711 94.9772 7.71028 94.9794C7.62344 94.9816 7.53759 94.9605 7.46166 94.9182C7.38572 94.876 7.32249 94.8141 7.27854 94.7392C7.23459 94.6642 7.21154 94.5788 7.21178 94.492C7.2088 94.4253 7.22042 94.3588 7.24583 94.297C7.27124 94.2353 7.30982 94.1799 7.35888 94.1347C7.40793 94.0895 7.46629 94.0555 7.52985 94.0352C7.59342 94.0149 7.66067 94.0087 7.72691 94.0171Z" fill="#1D1F20"/>
<path id="Vector_86" d="M7.45131 101.37C7.54314 101.337 7.63714 101.311 7.73263 101.291C7.72535 101.298 7.72293 101.301 7.65524 101.332C7.43299 101.41 7.13584 101.516 6.91244 101.585C6.88016 101.595 6.84703 101.602 6.81347 101.606L6.82802 101.592C6.94167 101.535 7.26414 101.428 7.45131 101.37Z" fill="#1D1F20"/>
<path id="Vector_87" d="M7.85989 100.87C8.05063 100.821 8.16625 100.836 8.13449 100.906C8.04052 101.097 7.29874 101.381 7.23323 101.251C7.21885 101.237 7.23467 101.211 7.24805 101.191C7.42213 101.035 7.6324 100.925 7.85989 100.87Z" fill="#1D1F20"/>
<path id="Vector_88" d="M8.51616 98.9594C8.79844 98.9204 8.90312 99.1502 8.70997 99.3983C8.46337 99.716 7.98805 99.7874 7.94873 99.5123C7.94551 99.4784 7.94816 99.4442 7.95657 99.4111C8.00117 99.2928 8.07655 99.1886 8.17492 99.1092C8.27328 99.0298 8.39108 98.9781 8.51616 98.9594Z" fill="#1D1F20"/>
<path id="Vector_89" d="M8.22604 100.036C8.46739 99.9894 8.57645 100.093 8.46453 100.263C8.27473 100.556 7.69379 100.751 7.62756 100.54C7.619 100.507 7.62219 100.472 7.6366 100.44C7.70234 100.337 7.78847 100.247 7.88979 100.178C7.99111 100.108 8.1055 100.06 8.22604 100.036Z" fill="#1D1F20"/>
<path id="Vector_90" d="M8.73285 97.6855C9.0656 97.6734 9.15007 98.0548 8.87599 98.3326C8.60191 98.6103 8.22016 98.5558 8.20036 98.2423C8.19932 98.2153 8.20069 98.1883 8.20446 98.1615C8.22967 98.0359 8.29467 97.9218 8.38984 97.8361C8.48501 97.7503 8.60528 97.6975 8.73285 97.6855Z" fill="#1D1F20"/>
<path id="Vector_91" d="M8.90571 94.8169C9.28145 94.8701 9.3939 95.4109 9.07904 95.6546C8.82594 95.8517 8.45086 95.69 8.43888 95.2777C8.4349 95.2156 8.44429 95.1534 8.46642 95.0953C8.48855 95.0371 8.5229 94.9844 8.56716 94.9408C8.61142 94.8971 8.66454 94.8634 8.72295 94.842C8.78136 94.8207 8.84368 94.8121 8.90571 94.8169Z" fill="#1D1F20"/>
<path id="Vector_92" d="M8.86522 96.2893C9.21827 96.3074 9.31306 96.777 9.02093 97.0509C8.75789 97.2962 8.35358 97.1849 8.36936 96.7668C8.37764 96.6397 8.43306 96.5203 8.52477 96.4319C8.61649 96.3436 8.73789 96.2928 8.86522 96.2893Z" fill="#1D1F20"/>
<path id="Vector_93" d="M8.75193 100.687C8.82796 100.639 8.91007 100.602 8.99608 100.576C8.99814 100.633 8.26143 101.075 8.17468 101.07L8.19651 101.048C8.37219 100.914 8.55787 100.793 8.75193 100.687Z" fill="#1D1F20"/>
<path id="Vector_94" d="M9.42229 99.1772C9.62644 99.1027 9.71871 99.1913 9.62235 99.3799C9.45891 99.6994 8.96435 99.9623 8.9065 99.7606C8.89764 99.7258 8.89997 99.6891 8.91316 99.6558C9.01342 99.4356 9.19628 99.2637 9.42229 99.1772Z" fill="#1D1F20"/>
<path id="Vector_95" d="M9.1211 100.059C9.28548 99.9827 9.38551 99.9846 9.35245 100.07C9.2667 100.298 8.62183 100.702 8.56723 100.562C8.56314 100.538 8.568 100.512 8.58092 100.491C8.72213 100.304 8.9078 100.156 9.1211 100.059Z" fill="#1D1F20"/>
<path id="Vector_96" d="M9.65773 98.0931C9.90033 98.0382 9.98705 98.2473 9.82519 98.5053C9.63285 98.8198 9.2488 98.9448 9.1851 98.7154C9.17438 98.6719 9.17383 98.6265 9.18349 98.5828C9.21364 98.4672 9.27314 98.3614 9.35622 98.2756C9.43931 98.1898 9.54317 98.127 9.65773 98.0931Z" fill="#1D1F20"/>
<path id="Vector_97" d="M9.89356 95.5306C10.2248 95.5607 10.2845 96.0697 9.98415 96.2991C9.78555 96.4519 9.4823 96.3703 9.48466 95.9798C9.51438 95.6485 9.74177 95.5175 9.89356 95.5306Z" fill="#1D1F20"/>
<path id="Vector_98" d="M9.81443 96.8581C10.1074 96.8372 10.1738 97.2222 9.91901 97.5024C9.69454 97.748 9.39591 97.7001 9.37351 97.4179C9.37207 97.3913 9.37304 97.3647 9.37641 97.3383C9.3876 97.2216 9.43634 97.1117 9.51532 97.0251C9.5943 96.9385 9.69925 96.8799 9.81443 96.8581Z" fill="#1D1F20"/>
<path id="Vector_99" d="M9.88747 94.1673C10.2088 94.2503 10.3092 94.7886 10.0285 94.9722C9.83848 95.095 9.5295 94.9639 9.5066 94.5648C9.51346 94.2273 9.73342 94.13 9.88747 94.1673Z" fill="#1D1F20"/>
<path id="Vector_100" d="M9.8701 99.7732C9.92677 99.7169 9.99218 99.6701 10.0638 99.6347C10.0876 99.6879 9.4464 100.278 9.38018 100.266C9.38018 100.266 9.37299 100.259 9.39486 100.23C9.53996 100.065 9.69896 99.9117 9.8701 99.7732Z" fill="#1D1F20"/>
<path id="Vector_101" d="M10.4028 98.2303C10.5576 98.1446 10.6235 98.2114 10.578 98.3617C10.4797 98.6648 10.0787 99.0007 10.0001 98.8483C9.98695 98.8101 9.98635 98.7687 9.99841 98.7301C10.0701 98.5211 10.2133 98.3441 10.4028 98.2303Z" fill="#1D1F20"/>
<path id="Vector_102" d="M10.1659 99.1018C10.2918 99.011 10.3666 98.9971 10.3626 99.0585C10.3276 99.2656 9.80873 99.7658 9.72613 99.6724C9.70816 99.6542 9.72287 99.6133 9.73266 99.5893C9.8397 99.3971 9.98758 99.2306 10.1659 99.1018Z" fill="#1D1F20"/>
<path id="Vector_103" d="M10.5748 97.2067C10.7596 97.1514 10.8333 97.3279 10.7149 97.5717C10.5709 97.8672 10.2903 98.0147 10.2107 97.8298C10.1947 97.782 10.1904 97.7311 10.1983 97.6814C10.2181 97.5778 10.2627 97.4805 10.3283 97.3978C10.3938 97.3152 10.4784 97.2496 10.5748 97.2067Z" fill="#1D1F20"/>
<path id="Vector_104" d="M10.719 94.8885C10.9838 94.9433 11.0218 95.4378 10.7846 95.5952C10.6188 95.7062 10.4099 95.577 10.3961 95.2599C10.3824 94.9428 10.5901 94.8695 10.719 94.8885Z" fill="#1D1F20"/>
<path id="Vector_105" d="M10.6807 96.0819C10.9242 96.0667 10.9678 96.4431 10.7529 96.6911C10.5757 96.8947 10.3579 96.8414 10.3389 96.5942C10.3366 96.5693 10.3368 96.5443 10.3393 96.5194C10.3394 96.4189 10.3729 96.3212 10.4348 96.2419C10.4966 96.1627 10.5831 96.1063 10.6807 96.0819Z" fill="#1D1F20"/>
<path id="Vector_106" d="M10.975 98.073C11.0174 98.0312 11.1132 97.9366 11.1117 97.9908C11.1156 98.1403 10.7035 98.7268 10.6412 98.6565C10.628 98.6431 10.6403 98.6023 10.6453 98.5806C10.7251 98.3936 10.8366 98.2219 10.975 98.073Z" fill="#1D1F20"/>
<path id="Vector_107" d="M10.7537 98.7131C10.7958 98.654 10.8425 98.5983 10.8933 98.5465C10.8662 98.65 10.4212 99.2809 10.3719 99.2624C10.3659 99.2564 10.372 99.248 10.3842 99.2215C10.4967 99.0446 10.6201 98.8747 10.7537 98.7131Z" fill="#1D1F20"/>
<path id="Vector_108" d="M11.1436 97.2818C11.2356 97.2077 11.2874 97.2238 11.2759 97.3237C11.2517 97.5417 10.9477 97.9856 10.8616 97.8741C10.8352 97.8474 10.8464 97.7908 10.8514 97.7571C10.9002 97.5735 11.0018 97.4082 11.1436 97.2818Z" fill="#1D1F20"/>
<path id="Vector_109" d="M11.3163 95.4349C11.5091 95.4435 11.5151 95.8473 11.326 96.0123C11.2085 96.1139 11.0715 96.0407 11.0767 95.7912C11.0818 95.5417 11.2283 95.4331 11.3163 95.4349Z" fill="#1D1F20"/>
<path id="Vector_110" d="M11.2577 96.3919C11.3967 96.3363 11.4391 96.5029 11.3473 96.7252C11.2556 96.9476 11.0582 97.092 11.0049 96.9482C10.9915 96.9062 10.9877 96.8617 10.9936 96.818C11.0018 96.7314 11.0299 96.6479 11.0757 96.574C11.1215 96.5 11.1838 96.4378 11.2577 96.3919Z" fill="#1D1F20"/>
<path id="Vector_111" d="M11.311 94.4472C11.5141 94.5462 11.5354 95.002 11.341 95.0573C11.2445 95.0831 11.1053 94.9809 11.0912 94.7144C11.095 94.4854 11.2076 94.3958 11.311 94.4472Z" fill="#1D1F20"/>
<path id="Vector_112" d="M11.5185 97.0609C11.5358 97.0189 11.5592 96.9796 11.5879 96.9445C11.5898 97.0385 11.3511 97.6431 11.3044 97.5982L11.3071 97.538C11.3621 97.3721 11.4321 97.2117 11.5161 97.0585L11.5185 97.0609Z" fill="#1D1F20"/>
<path id="Vector_113" d="M11.3727 97.5982C11.4008 97.5393 11.4277 97.4792 11.4509 97.4179L11.3836 97.5922C11.3311 97.7088 11.2662 97.8662 11.2125 97.9815C11.1861 98.0393 11.1555 98.0951 11.1211 98.1484L11.1285 98.1147C11.2019 97.9393 11.2933 97.7724 11.3727 97.5982Z" fill="#1D1F20"/>
<path id="Vector_114" d="M11.625 96.427C11.6517 96.4007 11.6882 96.3527 11.6927 96.3962C11.7076 96.5204 11.5301 96.9856 11.458 96.9442C11.44 96.926 11.4428 96.8705 11.4465 96.8452C11.4781 96.6956 11.5392 96.5539 11.6262 96.4282L11.625 96.427Z" fill="#1D1F20"/>
<path id="Vector_115" d="M11.703 94.9919C11.816 95.0409 11.8005 95.4132 11.6845 95.4582C11.6362 95.4747 11.5679 95.4176 11.5666 95.2344C11.5653 95.0512 11.6585 94.9759 11.703 94.9919Z" fill="#1D1F20"/>
<path id="Vector_116" d="M11.6874 95.7244C11.772 95.6816 11.7734 95.8528 11.7181 96.0247C11.6628 96.1967 11.5817 96.2649 11.5448 96.1814C11.5324 96.1425 11.5286 96.1014 11.5335 96.0608C11.5346 95.9971 11.5488 95.9344 11.5753 95.8765C11.6017 95.8186 11.6399 95.7668 11.6874 95.7244Z" fill="#1D1F20"/>
<path id="Vector_117" d="M11.7129 96.5065L11.6993 96.5679L11.6895 96.6016L11.6945 96.5654C11.7169 96.4547 11.7452 96.3452 11.764 96.2357L11.7129 96.5065Z" fill="#1D1F20"/>
<path id="Vector_118" d="M11.8563 95.2853L11.8491 95.4818L11.8451 95.5456C11.8386 95.6191 11.8254 95.6033 11.8254 95.6009C11.8255 95.5985 11.8136 95.5719 11.8164 95.4972C11.8198 95.4251 11.8332 95.3538 11.8563 95.2853Z" fill="#1D1F20"/>
<path id="Vector_119" d="M11.8301 95.738L11.8362 95.732L11.831 95.7947L11.8006 96.0331C11.7956 96.0717 11.7881 96.1198 11.7772 96.1234C11.7663 96.1269 11.775 96.0824 11.7788 96.0595C11.7867 95.9487 11.8139 95.8404 11.8301 95.738Z" fill="#1D1F20"/>
<path id="Vector_120" d="M11.8546 94.8261L11.8557 94.849L11.8578 94.902L11.8613 95.1094C11.838 95.0482 11.8273 94.9829 11.8299 94.9175C11.8282 94.8066 11.8452 94.7898 11.8512 94.7959L11.8546 94.8261Z" fill="#1D1F20"/>
<path id="Vector_121" d="M-0.353812 92.0062C-0.208834 91.7505 -0.152532 91.6086 -0.209275 91.6239C-0.336098 91.6676 -0.746839 92.4205 -0.667553 92.4644C-0.544717 92.325 -0.439358 92.1711 -0.353812 92.0062Z" fill="#1D1F20"/>
<path id="Vector_122" d="M-0.13936 92.172C0.0261001 91.9176 0.0959296 91.7313 0.0211592 91.738C-0.130778 91.749 -0.551993 92.4403 -0.479177 92.5577C-0.409432 92.5847 -0.142998 92.1756 -0.13936 92.172Z" fill="#1D1F20"/>
<path id="Vector_123" d="M0.230903 93.0374C0.481901 92.7897 0.543606 92.5514 0.405036 92.5444C0.200184 92.5358 -0.178903 93.037 -0.146233 93.2156C-0.097465 93.3232 0.14845 93.1188 0.230903 93.0374Z" fill="#1D1F20"/>
<path id="Vector_124" d="M0.0628224 92.5299C0.288721 92.247 0.33335 92.0424 0.222392 92.0537C0.0414706 92.0741 -0.354942 92.6499 -0.304098 92.813C-0.235929 92.9015 0.0603827 92.5347 0.0628224 92.5299Z" fill="#1D1F20"/>
<path id="Vector_125" d="M0.355548 93.6597C0.637591 93.4603 0.705476 93.1968 0.544144 93.1668C0.340679 93.128 -0.0461245 93.5098 -0.0233295 93.7269C0.0108735 93.8513 0.246607 93.736 0.355548 93.6597Z" fill="#1D1F20"/>
<path id="Vector_126" d="M0.474661 95.1176C0.76058 95.075 0.874221 94.819 0.721901 94.6938C0.53839 94.5443 0.108252 94.7173 0.0984532 94.9426C0.116806 95.097 0.333507 95.1395 0.474661 95.1176Z" fill="#1D1F20"/>
<path id="Vector_127" d="M0.442296 94.3646C0.727482 94.2437 0.818303 93.9743 0.659673 93.896C0.471006 93.8019 0.0534466 94.0871 0.0581407 94.3077C0.0849519 94.4585 0.326313 94.4096 0.442296 94.3646Z" fill="#1D1F20"/>
<path id="Vector_128" d="M0.462175 95.8947C0.735575 95.9291 0.872986 95.7288 0.752295 95.5556C0.592172 95.3255 0.141024 95.385 0.103657 95.5848L0.101114 95.6065C0.104916 95.7753 0.318857 95.8756 0.462175 95.8947Z" fill="#1D1F20"/>
<path id="Vector_129" d="M0.250729 90.9573C0.457183 90.7009 0.448913 90.6731 0.450184 90.6622C0.418948 90.6451 0.243144 90.8163 0.105951 90.9804C-0.00944201 91.0954 -0.0990268 91.2337 -0.15685 91.386L-0.150858 91.3921C-0.0038684 91.2599 0.130566 91.1143 0.250729 90.9573Z" fill="#1D1F20"/>
<path id="Vector_130" d="M-0.0313617 91.0917C0.0281552 91.0162 0.087686 90.9382 0.152009 90.8652C-0.00702398 91.0533 -0.212268 91.3086 -0.359307 91.5064C-0.37731 91.5307 -0.393959 91.5559 -0.40918 91.582L-0.399479 91.5725C-0.271972 91.4154 -0.156473 91.2511 -0.0313617 91.0917Z" fill="#1D1F20"/>
<path id="Vector_131" d="M0.530206 91.0536C0.725616 90.8296 0.803744 90.6662 0.710843 90.6812C0.520221 90.7112 0.0115082 91.3212 0.106208 91.4074C0.185654 91.4248 0.437979 91.1566 0.530206 91.0536Z" fill="#1D1F20"/>
<path id="Vector_132" d="M0.807674 91.395C1.0417 91.164 1.12386 90.932 0.974331 90.943C0.74885 90.9571 0.286416 91.4878 0.360197 91.645C0.429651 91.7202 0.670641 91.5327 0.807674 91.395Z" fill="#1D1F20"/>
<path id="Vector_133" d="M1.24392 92.7136C1.56094 92.511 1.62906 92.2089 1.43772 92.1581C1.19343 92.0925 0.746278 92.4884 0.782134 92.7381C0.836601 92.9 1.09508 92.8102 1.24392 92.7136Z" fill="#1D1F20"/>
<path id="Vector_134" d="M1.05106 91.9707C1.34058 91.7304 1.39757 91.4753 1.23016 91.4536C0.986883 91.4206 0.535697 91.8851 0.593408 92.1085C0.660161 92.2319 0.90932 92.089 1.05106 91.9707Z" fill="#1D1F20"/>
<path id="Vector_135" d="M1.38057 93.5897C1.7238 93.4378 1.80301 93.096 1.58414 93.0125C1.3304 92.9156 0.905439 93.2296 0.923107 93.4973C0.962965 93.6832 1.21501 93.6621 1.38057 93.5897Z" fill="#1D1F20"/>
<path id="Vector_136" d="M1.46357 94.5562C1.81 94.473 1.90736 94.1181 1.70204 93.9877C1.45951 93.8318 1.01574 94.0661 1.01522 94.3518C1.04049 94.5569 1.29099 94.5924 1.46357 94.5562Z" fill="#1D1F20"/>
<path id="Vector_137" d="M0.959453 90.1249C1.03698 90.0604 1.11571 89.997 1.19084 89.9301L1.03709 90.0435C0.879601 90.175 0.670034 90.3483 0.518523 90.4883L0.473659 90.5325L0.485784 90.5206C0.650444 90.3988 0.801953 90.2588 0.959453 90.1249Z" fill="#1D1F20"/>
<path id="Vector_138" d="M1.29835 90.0988C1.48974 89.941 1.57966 89.8211 1.52904 89.8208C1.39051 89.8065 0.747373 90.3215 0.787799 90.4134L0.801036 90.4171C0.98272 90.3382 1.1506 90.2307 1.29835 90.0988Z" fill="#1D1F20"/>
<path id="Vector_139" d="M1.63584 90.3604C1.88167 90.1704 1.98164 89.9831 1.83461 89.9797C1.58277 89.9671 1.01582 90.4404 1.11865 90.5785C1.20508 90.637 1.47237 90.4858 1.63584 90.3604Z" fill="#1D1F20"/>
<path id="Vector_140" d="M2.21561 91.7223C2.53609 91.5449 2.64048 91.2239 2.40468 91.1499C2.11355 91.0587 1.63278 91.4326 1.68777 91.7066C1.76389 91.8758 2.04264 91.8235 2.21561 91.7223Z" fill="#1D1F20"/>
<path id="Vector_141" d="M1.95478 90.9277C2.24161 90.7332 2.33601 90.4699 2.13011 90.4359C1.84233 90.3869 1.34321 90.8053 1.42506 91.024C1.50984 91.156 1.79622 91.0363 1.95478 90.9277Z" fill="#1D1F20"/>
<path id="Vector_142" d="M2.41778 92.7015C2.76701 92.5532 2.88376 92.1816 2.61445 92.0688C2.34514 91.9561 1.85883 92.2492 1.89423 92.5737C1.94956 92.7922 2.23411 92.7773 2.41778 92.7015Z" fill="#1D1F20"/>
<path id="Vector_143" d="M2.54501 93.8105C2.92049 93.7059 3.04959 93.2861 2.74678 93.1321C2.4824 93.0001 2.01692 93.2367 2.02817 93.5706C2.07726 93.8241 2.35907 93.8622 2.54501 93.8105Z" fill="#1D1F20"/>
<path id="Vector_144" d="M2.16 89.3882C2.25733 89.3444 2.3491 89.2892 2.43339 89.2237C2.43339 89.2237 2.41652 89.2236 2.30291 89.2759L1.95351 89.4506L1.75154 89.5637C1.69028 89.592 1.6339 89.6299 1.58453 89.6758L1.60021 89.6747C1.71739 89.631 2.11525 89.4132 2.16 89.3882Z" fill="#1D1F20"/>
<path id="Vector_145" d="M2.54578 89.5169C2.78038 89.3907 2.89078 89.2722 2.79931 89.2499C2.60554 89.2015 1.86914 89.5929 1.96014 89.6924L1.96853 89.7009C2.06714 89.7377 2.36559 89.6157 2.54578 89.5169Z" fill="#1D1F20"/>
<path id="Vector_146" d="M2.91959 89.9886C3.20856 89.84 3.31347 89.631 3.12092 89.5814C2.85858 89.5121 2.21779 89.8379 2.32982 90.0484C2.43038 90.1624 2.73582 90.0814 2.91959 89.9886Z" fill="#1D1F20"/>
<path id="Vector_147" d="M3.51482 91.7856C3.89167 91.6532 3.99639 91.2791 3.70187 91.148C3.40736 91.017 2.87663 91.2821 2.93967 91.62C3.01179 91.8532 3.31912 91.8565 3.51482 91.7856Z" fill="#1D1F20"/>
<path id="Vector_148" d="M3.25262 90.77C3.59465 90.6169 3.69408 90.3199 3.43429 90.2265C3.13598 90.1256 2.58821 90.4171 2.67084 90.7069C2.74929 90.8883 3.06288 90.8543 3.25262 90.77Z" fill="#1D1F20"/>
<path id="Vector_149" d="M3.70045 92.9675C4.09643 92.8618 4.21721 92.4215 3.8964 92.2541C3.57559 92.0868 3.11004 92.3354 3.14157 92.7021C3.19536 92.9772 3.50004 93.0216 3.70045 92.9675Z" fill="#1D1F20"/>
<path id="Vector_150" d="M3.82665 95.6532C3.91347 95.655 3.99875 95.6302 4.07097 95.582C4.14318 95.5338 4.19886 95.4646 4.23049 95.3838C4.26212 95.3029 4.26818 95.2143 4.24785 95.1299C4.22751 95.0454 4.18177 94.9692 4.11679 94.9115C3.84341 94.6734 3.3327 94.8156 3.31093 95.2277C3.31684 95.2895 3.33487 95.3495 3.364 95.4044C3.39313 95.4592 3.43277 95.5078 3.48067 95.5473C3.52857 95.5868 3.58379 95.6165 3.64315 95.6347C3.70252 95.6528 3.76487 95.6591 3.82665 95.6532Z" fill="#1D1F20"/>
<path id="Vector_151" d="M3.80769 94.2804C4.21433 94.2073 4.3593 93.7527 4.04964 93.536C3.76518 93.3375 3.2614 93.5281 3.26622 93.9283C3.27698 93.9878 3.29981 94.0445 3.3333 94.0949C3.3668 94.1453 3.41024 94.1883 3.46096 94.2213C3.51169 94.2543 3.56862 94.2765 3.62825 94.2867C3.68788 94.2969 3.74895 94.2947 3.80769 94.2804Z" fill="#1D1F20"/>
<path id="Vector_152" d="M3.51638 88.9307C3.62419 88.9044 3.7273 88.8616 3.8221 88.8039C3.75381 88.7347 2.90479 89.0121 2.87919 89.0613L2.89236 89.0746C3.10461 89.0473 3.31363 88.9991 3.51638 88.9307Z" fill="#1D1F20"/>
<path id="Vector_153" d="M3.93265 89.2617C4.18626 89.1815 4.31111 89.0655 4.21384 89.0057C4.02053 88.8826 3.24663 89.0954 3.28421 89.2596L3.30577 89.2814C3.41249 89.3726 3.73822 89.3242 3.93265 89.2617Z" fill="#1D1F20"/>
<path id="Vector_154" d="M4.65506 90.9261C5.01604 90.8286 5.13004 90.5124 4.85981 90.3526C4.54755 90.1672 3.95932 90.3716 4.03191 90.7265C4.11732 90.9537 4.44258 90.9825 4.65506 90.9261Z" fill="#1D1F20"/>
<path id="Vector_155" d="M4.3229 89.948C4.63927 89.8538 4.75508 89.6364 4.55209 89.5205C4.24701 89.3424 3.60802 89.5706 3.68121 89.8242L3.69071 89.8484C3.80293 90.0275 4.13335 90.0009 4.3229 89.948Z" fill="#1D1F20"/>
<path id="Vector_156" d="M4.88734 92.132C5.2784 92.0431 5.4001 91.6498 5.09759 91.4452C4.79509 91.2406 4.23586 91.4332 4.28287 91.8325C4.35715 92.1066 4.68222 92.1667 4.88734 92.132Z" fill="#1D1F20"/>
<path id="Vector_157" d="M5.11705 94.9346C5.20809 94.9312 5.29597 94.9005 5.36915 94.8463C5.44234 94.7921 5.4974 94.717 5.52712 94.6309C5.55684 94.5448 5.55983 94.4517 5.53569 94.3639C5.51154 94.276 5.4614 94.1975 5.39185 94.1386C5.31929 94.0812 5.23255 94.0445 5.14086 94.0325C5.04917 94.0205 4.95596 94.0335 4.87114 94.0703C4.78633 94.107 4.7131 94.1661 4.65923 94.2412C4.60536 94.3163 4.57288 94.4046 4.56524 94.4968C4.57141 94.5623 4.59077 94.6259 4.62215 94.6837C4.65353 94.7415 4.69628 94.7924 4.74783 94.8333C4.79939 94.8742 4.85868 94.9043 4.92213 94.9217C4.98558 94.9391 5.05189 94.9435 5.11705 94.9346Z" fill="#1D1F20"/>
<path id="Vector_158" d="M5.04906 93.4799C5.46288 93.4141 5.59713 92.9389 5.27426 92.7137C4.95139 92.4885 4.45238 92.6887 4.46672 93.1082C4.48008 93.1711 4.50582 93.2307 4.54245 93.2836C4.57908 93.3365 4.62587 93.3815 4.68007 93.4161C4.73428 93.4507 4.79483 93.4742 4.85818 93.4851C4.92153 93.4961 4.98642 93.4943 5.04906 93.4799Z" fill="#1D1F20"/>
<path id="Vector_159" d="M5.09034 96.4297C5.18233 96.4289 5.27201 96.4009 5.34803 96.3491C5.42405 96.2974 5.48301 96.2242 5.51745 96.1389C5.55189 96.0537 5.56027 95.9601 5.54153 95.87C5.52278 95.7799 5.47776 95.6973 5.41215 95.6328C5.34327 95.5701 5.25861 95.5274 5.16731 95.5093C5.076 95.4912 4.9815 95.4984 4.89401 95.53C4.80651 95.5616 4.72932 95.6166 4.67077 95.6888C4.61222 95.7611 4.57453 95.8481 4.56175 95.9402C4.56207 96.0078 4.57627 96.0745 4.60347 96.1363C4.63067 96.1982 4.67028 96.2538 4.71985 96.2997C4.76942 96.3455 4.82789 96.3808 4.89162 96.4031C4.95536 96.4255 5.02299 96.4345 5.09034 96.4297Z" fill="#1D1F20"/>
<path id="Vector_160" d="M4.99772 88.8202C5.21841 88.8013 5.3573 88.7552 5.31774 88.72C5.22669 88.6278 4.32597 88.6853 4.31094 88.7793L4.33011 88.7987C4.54994 88.8429 4.77557 88.8502 4.99772 88.8202Z" fill="#1D1F20"/>
<path id="Vector_161" d="M5.41951 89.3491C5.70058 89.3113 5.8351 89.1905 5.69832 89.0859C5.44999 88.8925 4.7011 88.9559 4.73478 89.1671L4.75142 89.2058C4.86869 89.3464 5.21204 89.3741 5.41951 89.3491Z" fill="#1D1F20"/>
<path id="Vector_162" d="M6.08782 91.3631C6.45572 91.3163 6.58185 90.9881 6.31679 90.7705C5.99056 90.5031 5.41714 90.6497 5.45123 90.9923L5.45704 91.0297C5.54568 91.3208 5.88879 91.3871 6.08782 91.3631Z" fill="#1D1F20"/>
<path id="Vector_163" d="M5.79299 90.2274C6.14039 90.1816 6.25754 89.9437 6.01391 89.7697C5.67906 89.5323 5.06723 89.6546 5.12934 89.9479L5.13881 89.9769C5.24829 90.2091 5.59757 90.2525 5.79299 90.2274Z" fill="#1D1F20"/>
<path id="Vector_164" d="M6.29456 92.6907C6.72037 92.637 6.83631 92.1991 6.49668 91.9544C6.15706 91.7098 5.65469 91.8678 5.68949 92.2911C5.72332 92.4206 5.80383 92.5331 5.91554 92.6068C6.02724 92.6806 6.16224 92.7105 6.29456 92.6907Z" fill="#1D1F20"/>
<path id="Vector_165" d="M6.43713 95.6999C6.53423 95.6942 6.62727 95.6591 6.70387 95.5992C6.78048 95.5394 6.83701 95.4576 6.86597 95.3648C6.89492 95.2719 6.89492 95.1725 6.86596 95.0796C6.837 94.9867 6.78046 94.9048 6.70385 94.8448C6.64246 94.7905 6.56847 94.7524 6.48863 94.734C6.40879 94.7156 6.32563 94.7175 6.24674 94.7395C6.16784 94.7615 6.09572 94.8028 6.03694 94.8598C5.97816 94.9168 5.9346 94.9876 5.91021 95.0658C5.88583 95.144 5.8814 95.2271 5.89733 95.3074C5.91326 95.3878 5.94905 95.4629 6.00143 95.526C6.05381 95.589 6.12112 95.6379 6.19722 95.6683C6.27332 95.6987 6.3558 95.7096 6.43713 95.6999Z" fill="#1D1F20"/>
<path id="Vector_166" d="M6.41385 94.1621C6.50495 94.1578 6.59253 94.1257 6.66473 94.0701C6.73692 94.0144 6.79025 93.9379 6.81747 93.8509C6.8447 93.7638 6.84452 93.6705 6.81695 93.5836C6.78938 93.4966 6.73576 93.4202 6.66335 93.3647C6.35037 93.0985 5.83117 93.2492 5.83081 93.7072C5.83913 93.7754 5.86083 93.8412 5.89466 93.901C5.92849 93.9608 5.9738 94.0134 6.02797 94.0556C6.08214 94.0979 6.14411 94.1291 6.21033 94.1473C6.27655 94.1656 6.34572 94.1706 6.41385 94.1621Z" fill="#1D1F20"/>
<path id="Vector_167" d="M6.08856 88.7298C6.19094 88.7414 6.29332 88.7529 6.39567 88.7693C6.09823 88.725 5.70075 88.6789 5.40076 88.6563L5.40795 88.6636C5.5297 88.6608 5.8043 88.6965 6.08856 88.7298Z" fill="#1D1F20"/>
<path id="Vector_168" d="M6.51451 89.0641C6.73616 89.0849 6.85928 89.0569 6.82225 88.9999C6.72549 88.8558 5.85248 88.7159 5.83002 88.8436L5.84788 88.8786C6.05402 88.9881 6.28151 89.0514 6.51451 89.0641Z" fill="#1D1F20"/>
<path id="Vector_169" d="M7.25074 90.784C7.57975 90.7899 7.69205 90.5568 7.46803 90.3299C7.18051 90.0386 6.60914 90.0467 6.61097 90.342C6.6114 90.3645 6.61491 90.3868 6.62142 90.4083C6.71751 90.6633 7.04705 90.7814 7.25074 90.784Z" fill="#1D1F20"/>
<path id="Vector_170" d="M6.91717 89.7732C7.18949 89.7871 7.31191 89.6735 7.18504 89.5255C6.96121 89.2672 6.27349 89.1817 6.24683 89.4045C6.24692 89.4295 6.25253 89.4543 6.26327 89.4769C6.37664 89.6645 6.71353 89.7633 6.91717 89.7732Z" fill="#1D1F20"/>
<path id="Vector_171" d="M7.5037 92.0236C7.86535 92.0141 7.97598 91.6581 7.69672 91.397C7.3839 91.1043 6.87707 91.202 6.89423 91.5541L6.90002 91.5939C6.94041 91.7213 7.02116 91.8321 7.13007 91.9097C7.23898 91.9872 7.37013 92.0272 7.5037 92.0236Z" fill="#1D1F20"/>
<path id="Vector_172" d="M7.73853 94.9325C7.82988 94.9205 7.91558 94.8816 7.98477 94.8208C8.05396 94.76 8.10351 94.68 8.12716 94.591C8.15081 94.5019 8.14748 94.4078 8.1176 94.3206C8.08771 94.2334 8.03262 94.157 7.9593 94.1011C7.89356 94.0406 7.81141 94.0007 7.72315 93.9867C7.63489 93.9726 7.54447 93.9849 7.46325 94.0221C7.38202 94.0593 7.31361 94.1196 7.26661 94.1956C7.21961 94.2715 7.1961 94.3597 7.19906 94.449C7.20268 94.5162 7.21953 94.582 7.24862 94.6426C7.27771 94.7033 7.31848 94.7577 7.36859 94.8026C7.4187 94.8475 7.47717 94.8821 7.54065 94.9044C7.60413 94.9267 7.67138 94.9362 7.73853 94.9325Z" fill="#1D1F20"/>
<path id="Vector_173" d="M7.66799 93.4275C8.05022 93.4048 8.16739 92.9633 7.87258 92.6816C7.57777 92.3999 7.09719 92.5436 7.09496 92.9124L7.0971 92.9582C7.11865 93.0926 7.1886 93.2145 7.29376 93.3009C7.39892 93.3873 7.53203 93.4324 7.66799 93.4275Z" fill="#1D1F20"/>
<path id="Vector_174" d="M7.71102 96.4803C7.80853 96.468 7.90015 96.427 7.97426 96.3625C8.04836 96.2979 8.10161 96.2128 8.12724 96.118C8.15286 96.0231 8.14972 95.9227 8.1182 95.8296C8.08668 95.7364 8.02821 95.6547 7.9502 95.5949C7.87714 95.5478 7.79282 95.5212 7.70602 95.5178C7.61922 95.5144 7.53311 95.5343 7.45668 95.5755C7.38024 95.6167 7.31627 95.6776 7.27142 95.752C7.22657 95.8263 7.20248 95.9114 7.20167 95.9982C7.19789 96.0649 7.20871 96.1316 7.23337 96.1936C7.25803 96.2557 7.29593 96.3116 7.34444 96.3575C7.39295 96.4034 7.45088 96.4382 7.5142 96.4594C7.57752 96.4806 7.64469 96.4878 7.71102 96.4803Z" fill="#1D1F20"/>
<path id="Vector_175" d="M7.52622 89.1268C7.61734 89.1602 7.7106 89.1874 7.80536 89.2083C7.79817 89.201 7.79578 89.1986 7.72847 89.1668C7.50479 89.0832 7.21013 88.9763 6.9876 88.9012C6.95532 88.8912 6.92232 88.8838 6.8889 88.8789L6.90447 88.8946C7.01742 88.9533 7.33856 89.0652 7.52622 89.1268Z" fill="#1D1F20"/>
<path id="Vector_176" d="M7.92616 89.6342C8.11628 89.6861 8.23208 89.6725 8.19517 89.5963C8.10352 89.404 7.36524 89.1096 7.29817 89.2381C7.28961 89.2585 7.30033 89.2791 7.31227 89.2984C7.48532 89.4604 7.69651 89.5759 7.92616 89.6342Z" fill="#1D1F20"/>
<path id="Vector_177" d="M8.56512 91.5509C8.84691 91.5938 8.95435 91.3655 8.76422 91.1147C8.52389 90.7936 8.04705 90.7156 8.00441 90.9901C8.00124 91.0244 8.00388 91.0591 8.01224 91.0926C8.05533 91.2112 8.12929 91.3162 8.22648 91.3968C8.32367 91.4773 8.44057 91.5305 8.56512 91.5509Z" fill="#1D1F20"/>
<path id="Vector_178" d="M8.27358 90.4671C8.51435 90.517 8.62465 90.4153 8.51479 90.2434C8.32855 89.948 7.7488 89.7462 7.68125 89.9543C7.67229 89.9876 7.67506 90.0229 7.68909 90.0544C7.75356 90.1591 7.83861 90.2497 7.93907 90.3206C8.03954 90.3916 8.15334 90.4414 8.27358 90.4671Z" fill="#1D1F20"/>
<path id="Vector_179" d="M8.76438 92.8225C9.09695 92.8393 9.18603 92.459 8.91533 92.1775C8.64463 91.896 8.26224 91.9451 8.23866 92.2583C8.23729 92.2853 8.23834 92.3123 8.24178 92.3391C8.26548 92.4651 8.3291 92.5801 8.42322 92.6672C8.51734 92.7542 8.63696 92.8087 8.76438 92.8225Z" fill="#1D1F20"/>
<path id="Vector_180" d="M8.90055 95.6972C9.2769 95.6492 9.39707 95.1112 9.08399 94.8619C8.83329 94.6613 8.45628 94.8178 8.43933 95.2299C8.43459 95.2919 8.44324 95.3542 8.46466 95.4127C8.48609 95.4711 8.5198 95.5243 8.56353 95.5686C8.60725 95.6129 8.65997 95.6473 8.71811 95.6694C8.77625 95.6916 8.83847 95.7011 8.90055 95.6972Z" fill="#1D1F20"/>
<path id="Vector_181" d="M8.87565 94.2328C9.22769 94.2184 9.32815 93.7502 9.04055 93.4734C8.7793 93.2233 8.37608 93.3289 8.3832 93.746C8.3894 93.8741 8.44345 93.9951 8.53466 94.0853C8.62586 94.1754 8.74756 94.2281 8.87565 94.2328Z" fill="#1D1F20"/>
<path id="Vector_182" d="M8.82005 89.8277C8.8952 89.8762 8.97643 89.9144 9.06163 89.9415C9.06317 89.8849 8.33308 89.4314 8.24627 89.4356L8.26177 89.4634C8.43845 89.5987 8.62507 89.7205 8.82005 89.8277Z" fill="#1D1F20"/>
<path id="Vector_183" d="M9.4697 91.3428C9.67293 91.4202 9.76627 91.3328 9.67219 91.143C9.51262 90.8212 9.02369 90.5514 8.95979 90.7535C8.95236 90.788 8.95465 90.8239 8.9664 90.8572C9.06383 91.0789 9.24465 91.2534 9.4697 91.3428Z" fill="#1D1F20"/>
<path id="Vector_184" d="M9.17455 90.4519C9.338 90.5302 9.43804 90.5297 9.40602 90.4439C9.32425 90.2131 8.6843 89.8001 8.62802 89.9395C8.62369 89.9645 8.62868 89.9903 8.64204 90.0119C8.78015 90.2006 8.9632 90.3519 9.17455 90.4519Z" fill="#1D1F20"/>
<path id="Vector_185" d="M9.68742 92.4298C9.92813 92.4893 10.0186 92.2802 9.85985 92.02C9.67132 91.7029 9.28882 91.5724 9.22235 91.801C9.21111 91.8443 9.21001 91.8897 9.21914 91.9335C9.24835 92.0493 9.30672 92.1557 9.3887 92.2426C9.47067 92.3295 9.57352 92.3939 9.68742 92.4298Z" fill="#1D1F20"/>
<path id="Vector_186" d="M9.89793 94.9975C10.2295 94.9721 10.2953 94.4639 9.99778 94.2304C9.80105 94.0747 9.49804 94.1534 9.49449 94.5427C9.51536 94.8791 9.7448 95.0072 9.89793 94.9975Z" fill="#1D1F20"/>
<path id="Vector_187" d="M9.83488 93.6683C10.1264 93.6944 10.1986 93.3092 9.94603 93.0266C9.72455 92.778 9.42537 92.8217 9.39956 93.1036C9.39821 93.1265 9.39922 93.159 9.40028 93.1843C9.41096 93.301 9.45904 93.4111 9.53735 93.4983C9.61566 93.5856 9.72002 93.6452 9.83488 93.6683Z" fill="#1D1F20"/>
<path id="Vector_188" d="M9.87324 96.3628C10.1967 96.2831 10.3036 95.7463 10.0324 95.5539C9.84395 95.4261 9.5322 95.5541 9.50448 95.9528C9.5012 96.2963 9.72116 96.3979 9.87324 96.3628Z" fill="#1D1F20"/>
<path id="Vector_189" d="M9.92413 90.7569C9.97956 90.8148 10.045 90.8623 10.1173 90.8969C10.1393 90.8464 9.50777 90.2453 9.4402 90.2569C9.4402 90.2569 9.4402 90.2569 9.45444 90.2932C9.59753 90.4608 9.75466 90.616 9.92413 90.7569Z" fill="#1D1F20"/>
<path id="Vector_190" d="M10.438 92.3066C10.5918 92.3944 10.6644 92.3347 10.616 92.1788C10.5214 91.8744 10.1245 91.5306 10.0428 91.6831C10.0292 91.7211 10.0281 91.7625 10.0397 91.8012C10.1089 92.0112 10.2499 92.1902 10.438 92.3066Z" fill="#1D1F20"/>
<path id="Vector_191" d="M10.2119 91.4322C10.3367 91.5247 10.4113 91.5397 10.4021 91.4721C10.3696 91.2646 9.85679 90.7571 9.77307 90.8494C9.75488 90.8673 9.7691 90.9084 9.77859 90.9326C9.8843 91.1291 10.0323 91.2998 10.2119 91.4322Z" fill="#1D1F20"/>
<path id="Vector_192" d="M10.5995 93.3342C10.7836 93.3922 10.8594 93.2167 10.7428 92.97C10.6023 92.6725 10.3236 92.5211 10.2417 92.7049C10.2251 92.7525 10.2203 92.8033 10.2276 92.8531C10.2464 92.9573 10.29 93.0554 10.3547 93.1391C10.4195 93.2229 10.5034 93.2898 10.5995 93.3342Z" fill="#1D1F20"/>
<path id="Vector_193" d="M10.7081 95.6458C10.9724 95.5959 11.0247 95.1081 10.7823 94.94C10.6178 94.8268 10.4073 94.9531 10.3897 95.27C10.3722 95.5868 10.5862 95.6679 10.7081 95.6458Z" fill="#1D1F20"/>
<path id="Vector_194" d="M10.6919 94.4611C10.9341 94.4784 10.9834 94.1039 10.7704 93.8517C10.5956 93.6456 10.3772 93.6959 10.3552 93.9428C10.3526 93.9677 10.3525 93.9927 10.3547 94.0176C10.3536 94.1184 10.3862 94.2168 10.4473 94.2971C10.5084 94.3774 10.5944 94.4351 10.6919 94.4611Z" fill="#1D1F20"/>
<path id="Vector_195" d="M11.0081 92.4744C11.05 92.5169 11.1447 92.6127 11.1438 92.5585C11.1495 92.4091 10.7445 91.8168 10.6826 91.8875C10.6693 91.9007 10.6799 91.9405 10.6846 91.9623C10.7621 92.1503 10.8716 92.3236 11.0081 92.4744Z" fill="#1D1F20"/>
<path id="Vector_196" d="M10.7946 91.8315C10.8359 91.8919 10.8827 91.9483 10.9346 92C10.9075 91.8949 10.4774 91.2651 10.4207 91.2756C10.4207 91.2756 10.4206 91.2901 10.4325 91.3167C10.5427 91.4954 10.6636 91.6673 10.7946 91.8315Z" fill="#1D1F20"/>
<path id="Vector_197" d="M11.1689 93.2608C11.26 93.3362 11.3131 93.3197 11.3017 93.2207C11.2801 93.0024 10.9815 92.5544 10.894 92.6647C10.8673 92.691 10.8779 92.7477 10.8825 92.7815C10.929 92.9658 11.0286 93.1324 11.1689 93.2608Z" fill="#1D1F20"/>
<path id="Vector_198" d="M11.3191 95.1125C11.5108 95.1078 11.5217 94.7041 11.3347 94.5364C11.2184 94.4332 11.083 94.5045 11.0766 94.76C11.0702 95.0155 11.2299 95.1142 11.3191 95.1125Z" fill="#1D1F20"/>
<path id="Vector_199" d="M11.273 94.1541C11.4113 94.2117 11.4569 94.0469 11.3666 93.8221C11.2764 93.5972 11.0808 93.45 11.0257 93.5931C11.0119 93.6349 11.0075 93.6794 11.0129 93.7232C11.021 93.8099 11.0486 93.8938 11.0936 93.9684C11.1387 94.043 11.2 94.1065 11.273 94.1541Z" fill="#1D1F20"/>
<path id="Vector_200" d="M11.3038 96.1014C11.5081 96.0052 11.535 95.5497 11.3413 95.4917C11.2462 95.4633 11.1046 95.5648 11.0885 95.8299C11.0847 96.0564 11.1963 96.1476 11.3038 96.1014Z" fill="#1D1F20"/>
<path id="Vector_201" d="M11.5394 93.492C11.5562 93.5343 11.5791 93.5738 11.6074 93.6094C11.6092 93.5142 11.3778 92.9063 11.3294 92.9517L11.3326 93.0108C11.3861 93.1774 11.4554 93.3385 11.5394 93.492Z" fill="#1D1F20"/>
<path id="Vector_202" d="M11.3986 92.9515C11.4259 93.0107 11.4521 93.0712 11.4746 93.1328L11.4094 92.9576C11.3583 92.8403 11.2965 92.6832 11.243 92.5659C11.2182 92.5073 11.1883 92.451 11.1536 92.3977L11.1606 92.4315C11.2319 92.608 11.3225 92.7774 11.3986 92.9515Z" fill="#1D1F20"/>
<path id="Vector_203" d="M11.6413 94.125C11.6677 94.1517 11.7096 94.1942 11.7086 94.1568C11.7251 94.0328 11.5531 93.5651 11.4817 93.6068C11.4636 93.6248 11.4656 93.6802 11.4691 93.7055C11.498 93.8554 11.5566 93.998 11.6413 94.125Z" fill="#1D1F20"/>
<path id="Vector_204" d="M11.7065 95.5545C11.8176 95.5071 11.809 95.137 11.6924 95.0892C11.6443 95.072 11.5753 95.1281 11.5717 95.3113C11.5682 95.4945 11.6545 95.5771 11.7065 95.5545Z" fill="#1D1F20"/>
<path id="Vector_205" d="M11.6967 94.8246C11.7821 94.8697 11.7843 94.6974 11.7323 94.5259C11.6803 94.3544 11.5976 94.2827 11.5597 94.3656C11.5469 94.4043 11.5425 94.4454 11.5469 94.486C11.5472 94.5497 11.5607 94.6127 11.5865 94.6709C11.6123 94.7292 11.6498 94.7815 11.6967 94.8246Z" fill="#1D1F20"/>
<path id="Vector_206" d="M11.7284 94.0515L11.7155 93.9899L11.706 93.9561L11.7118 93.9935C11.7317 94.1033 11.7587 94.2132 11.7773 94.3242L11.7284 94.0515Z" fill="#1D1F20"/>
<path id="Vector_207" d="M11.8574 95.2692L11.8502 95.0727L11.8482 95.0076C11.8426 94.934 11.8304 94.9484 11.8292 94.952C11.828 94.9556 11.817 94.9809 11.8189 95.0556C11.8213 95.1283 11.8343 95.2002 11.8574 95.2692Z" fill="#1D1F20"/>
<path id="Vector_208" d="M11.8428 94.8125L11.8383 94.7498C11.8303 94.6786 11.8213 94.5821 11.8108 94.5109C11.8063 94.4723 11.7993 94.4241 11.7885 94.4204C11.7777 94.4167 11.7858 94.4614 11.7893 94.4843C11.7946 94.6061 11.8241 94.7111 11.8428 94.8125Z" fill="#1D1F20"/>
<path id="Vector_209" d="M11.8494 95.7302L11.8519 95.7086L11.8535 95.6543L11.8596 95.4471C11.8336 95.507 11.8217 95.572 11.8247 95.6373C11.8216 95.7481 11.8383 95.7651 11.8444 95.7591L11.8494 95.7302Z" fill="#1D1F20"/>
<path id="Vector_210" d="M11.3386 93.4647C11.4157 94.0639 11.4571 94.6671 11.4627 95.2712C11.4509 95.8729 11.4042 96.4735 11.3229 97.0697C11.2293 97.8514 11.0304 98.6167 10.7318 99.3449L12.1046 99.3533C12.5228 99.355 12.9292 98.5274 13.1332 97.0824C13.2112 96.5013 13.2514 95.9158 13.2535 95.3295L13.2526 95.2776L13.2529 95.2246C13.2587 94.6378 13.2252 94.0513 13.1526 93.4689C12.9673 92.0225 12.5746 91.1856 12.1527 91.1851L10.7799 91.1743C11.0693 91.9068 11.2588 92.6747 11.3435 93.4575L11.3386 93.4647Z" fill="#454749"/>
<path id="Vector_211" d="M11.3388 93.4647L13.1479 93.4762C12.9626 92.0297 12.5699 91.1928 12.1481 91.1923L10.7753 91.1815C11.0646 91.914 11.2541 92.6819 11.3388 93.4647Z" fill="#1D1F20"/>
<path id="Vector_212" d="M13.3657 93.4777C13.6271 95.5032 13.3761 97.9483 12.8024 98.9363C12.7388 99.052 12.6572 99.1568 12.5607 99.2468L34.1718 98.6902C34.222 98.632 34.2668 98.5694 34.3056 98.5031C34.7843 97.6712 34.9956 95.6176 34.7768 93.9141C34.6641 93.0262 34.4544 92.416 34.2138 92.148L12.6267 91.3053C12.9409 91.5775 13.2196 92.3352 13.3645 93.4765L13.3657 93.4777Z" fill="#454749"/>
<path id="Vector_213" d="M14.4968 94.9381C14.3908 94.9374 14.2818 95.0258 14.1794 95.2059C13.8116 95.8373 13.6553 97.3766 13.8234 98.6675C13.9408 99.5844 14.1908 100.114 14.4571 100.117L22.5086 99.9239C22.6147 99.9246 22.7237 99.8338 22.8273 99.6549C23.1878 99.0282 23.3478 97.4781 23.1808 96.1908C23.0634 95.274 22.8111 94.7443 22.546 94.7424L14.4944 94.9357L14.4968 94.9381Z" fill="#454749"/>
<path id="Vector_214" d="M22.1908 96.187C22.2589 96.7457 22.2728 97.3097 22.2324 97.8711L22.1908 96.187Z" fill="#454749"/>
<path id="Vector_215" d="M14.7528 97.5539L14.7527 97.5756L14.8226 97.5785L14.7534 97.4647L14.7528 97.5539ZM13.9207 99.2235C13.9359 99.2995 14.0426 99.7909 14.2559 100.012C14.0827 99.7795 13.9678 99.5092 13.9207 99.2235Z" fill="white"/>
<path id="Vector_216" d="M13.9184 99.2137L13.9243 99.2198C13.9714 99.5055 14.0863 99.7758 14.2595 100.008C14.3103 100.069 14.3827 100.107 14.4613 100.115C14.8779 99.5355 15.12 98.8485 15.1591 98.1352L14.6329 97.2528C14.6329 97.2528 14.2285 99.1472 13.9943 99.2106L13.922 99.2101L13.9184 99.2137Z" fill="#747576"/>
<path id="Vector_217" d="M13.3655 93.4791L34.7743 93.9131C34.6615 93.0252 34.4518 92.415 34.2112 92.1469L12.6242 91.3043C12.9419 91.5801 13.2254 92.333 13.3655 93.4791Z" fill="#1D1F20"/>
<path id="Vector_218" d="M23.174 96.1288L23.182 96.1903C23.2039 96.3676 23.2208 96.5498 23.2354 96.7295L34.5668 96.6989C34.5909 96.505 34.6102 96.3039 34.6223 96.0954L23.18 96.1276L23.174 96.1288ZM13.6011 96.7598L13.7976 96.76C13.823 96.5432 13.8447 96.3445 13.8784 96.1555L13.6554 96.1551C13.6421 96.3623 13.6228 96.5635 13.6011 96.7598Z" fill="#BABABB"/>
<path id="Vector_219" d="M13.7958 96.7593L22.2043 96.7361L22.1895 96.1852C22.2138 96.3649 22.2295 96.5507 22.2404 96.7364L23.2324 96.7349C23.2215 96.5516 23.2045 96.3694 23.179 96.1957L23.171 96.1342L13.8827 96.1513C13.849 96.3403 13.8224 96.5438 13.8019 96.7558L13.7958 96.7593Z" fill="#BABABB"/>
<path id="Vector_220" d="M22.1909 96.1848L22.2057 96.7357L22.2418 96.736C22.2309 96.5503 22.2151 96.3645 22.1909 96.1848Z" fill="#BABABB"/>
<path id="Vector_221" d="M23.1109 98.9768L23.2375 98.9741C23.3838 98.4576 23.4775 97.9277 23.517 97.3922L14.648 97.041L14.4648 97.2434C14.3839 98.0637 14.218 98.7809 13.9864 99.2084L14.0383 99.2075C14.079 99.158 14.116 99.1055 14.1489 99.0504C14.3718 98.6627 14.5349 98.0081 14.625 97.2506L23.3351 97.5862C23.2988 98.0552 23.2239 98.5203 23.1109 98.9768Z" fill="black"/>
<path id="Vector_222" d="M18.0474 100.031C18.0474 100.031 18.5252 99.7462 18.643 98.4007L22.5545 98.5533C22.5089 99.3172 22.1867 99.7838 22.0315 99.9346C22.0315 99.9346 22.456 99.7025 22.6371 98.4623L18.5798 98.2857L18.5707 98.3977C18.4163 99.6116 18.1546 99.8388 18.0474 100.031Z" fill="#BABABB"/>
<path id="Vector_223" d="M5.96088 92.194C6.40064 95.6178 5.97553 99.7466 5.01082 101.418C4.73553 101.896 4.44603 102.133 4.16399 102.131L6.81559 102.15C7.10003 102.152 7.38954 101.914 7.66483 101.436C8.62832 99.7664 9.05102 95.6375 8.61369 92.2113C8.2946 89.7634 7.6233 88.3557 6.91339 88.352L4.2618 88.3335C4.96928 88.3396 5.63937 89.7485 5.95245 92.1927L5.96088 92.194Z" fill="#454749"/>
<path id="Vector_224" d="M5.95955 92.1923L8.61115 92.2108C8.29327 89.7618 7.62197 88.3541 6.91206 88.3503L4.26047 88.3318C4.97517 88.3404 5.64647 89.7481 5.95955 92.1923Z" fill="#1D1F20"/>
<path id="Vector_225" d="M34.9938 93.9207C35.2113 95.6229 35.0012 97.6778 34.5225 98.5097C34.3849 98.7462 34.2419 98.8657 34.0997 98.8647L35.4147 98.8727C35.5557 98.8749 35.701 98.7554 35.8375 98.5177C36.3162 97.6881 36.5275 95.6321 36.3087 93.9287C36.1534 92.7138 35.8213 92.0136 35.467 92.0087L34.1556 92.002C34.5063 92.0056 34.8396 92.7071 34.9962 93.9231L34.9938 93.9207Z" fill="#454749"/>
<path id="Vector_226" d="M34.9926 93.9206L36.3076 93.9285C36.1522 92.7137 35.8201 92.0135 35.4658 92.0086L34.1544 92.0019C34.5028 92.0031 34.836 92.7045 34.9926 93.9206Z" fill="#1D1F20"/>
<path id="Vector_227" d="M11.5426 96.982L12.9118 96.9771C12.9383 96.7832 12.9624 96.5821 12.9794 96.3737L11.6077 96.3786C11.5908 96.5845 11.5678 96.7869 11.5426 96.982Z" fill="#BABABB"/>
<path id="Vector_228" d="M35.1918 96.9264L36.0681 96.924C36.0957 96.7314 36.1187 96.529 36.1356 96.3206L35.2581 96.3217C35.2412 96.5301 35.2183 96.7325 35.1918 96.9264Z" fill="#BABABB"/>
<path id="Vector_229" d="M6.26228 98.8084L8.03161 98.8207C8.09901 98.4379 8.15569 98.0345 8.20161 97.6154L6.43228 97.603C6.38757 98.021 6.32848 98.4243 6.26228 98.8084Z" fill="#BABABB"/>
<path id="Vector_230" d="M15.1535 98.1372L14.6297 97.2549L23.3337 97.5941L22.6354 98.4631L15.1535 98.1372Z" fill="#1D1F20"/>
<path id="Vector_231" d="M22.6337 98.4702C22.6337 98.4702 22.4976 99.6396 22.0282 99.9425L22.5007 99.9362C22.6067 99.9369 22.7158 99.8461 22.8193 99.6672C23.0447 99.2746 23.2884 98.4302 23.3259 97.6072L22.6337 98.4702Z" fill="#0C0C0D"/>
<path id="Vector_232" d="M14.4569 100.115C14.4569 100.115 15.0164 99.6849 15.2217 98.2218L18.1859 98.3703C18.1393 98.9672 17.9363 99.5411 17.5973 100.034C17.5973 100.034 18.117 99.5908 18.2635 98.2841L16.038 98.1733L15.1547 98.1346C15.1529 98.2095 15.1468 98.2844 15.1365 98.3586C15.0992 98.698 15.0136 99.0302 14.8822 99.3452C14.7864 99.5858 14.6641 99.8149 14.5177 100.029C14.48 100.085 14.4569 100.115 14.4569 100.115Z" fill="#BABABB"/>
<path id="Vector_233" d="M14.8825 99.3455C15.0144 99.0301 15.1005 98.6975 15.138 98.3577C15.0957 98.6966 15.0098 99.0286 14.8825 99.3455ZM14.4512 100.121C14.4512 100.121 14.4778 100.095 14.512 100.035C14.4877 100.059 14.473 100.092 14.4512 100.121Z" fill="#D0D1D1"/>
<path id="Vector_234" d="M15.1539 98.1352L16.0396 98.174L15.2262 98.1333L15.1539 98.1328L15.1539 98.1352Z" fill="#A6A6A7"/>
</g>
</g>
<defs>
<linearGradient id="paint0_linear_686_2617" x1="76.1897" y1="78.1898" x2="89.5123" y2="127.744" gradientUnits="userSpaceOnUse">
<stop stop-color="#AFE4CC"/>
<stop offset="1" stop-color="#59CB97"/>
</linearGradient>
<linearGradient id="paint1_linear_686_2617" x1="96.1447" y1="131.22" x2="85.9068" y2="115.348" gradientUnits="userSpaceOnUse">
<stop stop-color="#48728C"/>
<stop offset="1" stop-color="#48B0BD"/>
</linearGradient>
<linearGradient id="paint2_linear_686_2617" x1="90.4333" y1="118.341" x2="99.8942" y2="125.837" gradientUnits="userSpaceOnUse">
<stop stop-color="#0E3C59"/>
<stop offset="1" stop-color="#48B0BD"/>
</linearGradient>
<linearGradient id="paint3_linear_686_2617" x1="86.4399" y1="122.83" x2="94.9507" y2="114.242" gradientUnits="userSpaceOnUse">
<stop stop-color="#0E3C59"/>
<stop offset="1" stop-color="#48B0BD"/>
</linearGradient>
<linearGradient id="paint4_linear_686_2617" x1="95.2629" y1="122.198" x2="88.0477" y2="131.929" gradientUnits="userSpaceOnUse">
<stop stop-color="#0E3C59"/>
<stop offset="1" stop-color="#48B0BD"/>
</linearGradient>
<clipPath id="clip0_686_2617">
<rect width="1920" height="7397" fill="white" transform="translate(-232 -3648)"/>
</clipPath>
<clipPath id="clip1_686_2617">
<rect width="134" height="122" fill="white" transform="matrix(-1 1.06149e-07 1.06149e-07 1 134 0)"/>
</clipPath>
<clipPath id="clip2_686_2617">
<rect width="30.6674" height="30.6674" fill="white" transform="translate(17.1748 117) rotate(-134.627)"/>
</clipPath>
</defs>
</svg>
