<svg width="26" height="25" viewBox="0 0 26 25" fill="none" xmlns="http://www.w3.org/2000/svg">
<path d="M24.933 9.05202C24.7308 8.44626 24.2197 8.01173 23.6001 7.91708L17.311 6.97488L14.4801 0.965434C14.1988 0.369997 13.6231 0 12.9769 0C12.3307 0 11.7551 0.369997 11.4737 0.965434L8.68409 6.95337L2.3537 7.91708C1.73417 8.01173 1.22391 8.44626 1.02085 9.05202C0.813475 9.67414 0.966636 10.3487 1.42096 10.8125L5.99946 15.4986L4.91786 22.1035C4.8103 22.7634 5.07705 23.4096 5.61569 23.7891C6.13369 24.1565 6.79969 24.1926 7.35382 23.8872L12.9373 20.7689L18.6 23.8872C19.1559 24.1926 19.8201 24.1548 20.3381 23.7891C20.8768 23.4096 21.1444 22.7634 21.036 22.1035L19.9527 15.49L24.5329 10.8125C24.9872 10.3487 25.1404 9.67414 24.933 9.05202Z" fill="#FFB800"/>
</svg>
