<svg width="207" height="75" viewBox="0 0 207 75" fill="none" xmlns="http://www.w3.org/2000/svg">
<g id="layer1">
<g id="g5286">
<g id="text4703">
<path id="path5264" d="M78.5186 37.5426V40.3783C77.7215 39.9057 76.9194 39.554 76.1122 39.3232C75.3152 39.0814 74.508 38.9605 73.6905 38.9604C71.8615 38.9605 70.4412 39.587 69.4296 40.8399C68.418 42.082 67.9122 43.8295 67.9122 46.0828C67.9122 48.3359 68.418 50.089 69.4296 51.3421C70.4412 52.5841 71.8615 53.2051 73.6905 53.2051C74.5079 53.2051 75.3152 53.0897 76.1122 52.8589C76.9194 52.6171 77.7215 52.2599 78.5186 51.7873V54.59C77.7318 54.9857 76.9143 55.2825 76.0662 55.4803C75.2283 55.6781 74.3343 55.7771 73.384 55.7771C70.7989 55.7771 68.7451 54.9033 67.2226 53.1556C65.7001 51.408 64.9388 49.0505 64.9388 46.0827C64.9388 43.0712 65.7052 40.7025 67.2379 38.9769C68.7809 37.2512 70.8908 36.3884 73.5679 36.3884C74.4364 36.3884 75.2845 36.4874 76.1122 36.6852C76.9398 36.8721 77.742 37.1579 78.5186 37.5426Z" fill="#666666"/>
<path id="path5266" d="M90.0452 38.9606C88.5329 38.9607 87.3374 39.5982 86.4587 40.8731C85.5799 42.1371 85.1405 43.8737 85.1406 46.083C85.1405 48.2922 85.5748 50.0343 86.4433 51.3094C87.3221 52.5734 88.5226 53.2053 90.0452 53.2053C91.5472 53.2053 92.7376 52.5678 93.6163 51.2929C94.495 50.0179 94.9344 48.2813 94.9344 46.083C94.9344 43.8958 94.495 42.1647 93.6163 40.8896C92.7376 39.6036 91.5472 38.9606 90.0452 38.9606ZM90.0452 36.3887C92.4975 36.3887 94.4235 37.246 95.8235 38.9606C97.2234 40.6753 97.9232 43.0493 97.9232 46.083C97.9232 49.1055 97.2232 51.4797 95.8235 53.2053C94.4235 54.92 92.4975 55.7773 90.0452 55.7773C87.5826 55.7773 85.6514 54.92 84.2515 53.2053C82.8618 51.4797 82.1671 49.1057 82.1671 46.083C82.1671 43.0495 82.8619 40.6753 84.2515 38.9606C85.6514 37.246 87.5826 36.3887 90.0452 36.3887Z" fill="#666666"/>
<path id="path5268" d="M115.948 40.3772C116.653 39.0143 117.496 38.0087 118.477 37.3602C119.458 36.7117 120.612 36.3875 121.94 36.3875C123.729 36.3875 125.108 37.0634 126.079 38.4153C127.049 39.7562 127.535 41.6688 127.535 44.1527V55.2978H124.699V44.2516C124.699 42.482 124.408 41.1686 123.826 40.3113C123.243 39.454 122.354 39.0253 121.159 39.0253C119.698 39.0253 118.543 39.5474 117.695 40.5916C116.847 41.6358 116.423 43.0592 116.423 44.8617V55.2978H113.587V44.2517C113.587 42.4711 113.296 41.1577 112.714 40.3114C112.131 39.4541 111.232 39.0254 110.016 39.0254C108.576 39.0254 107.431 39.553 106.583 40.6082C105.735 41.6523 105.311 43.0702 105.311 44.8618V55.2979H102.475V36.8327H105.311V39.7014C105.955 38.5693 106.726 37.734 107.625 37.1954C108.525 36.6568 109.592 36.3875 110.829 36.3875C112.075 36.3875 113.133 36.7282 114.001 37.4097C114.88 38.0911 115.529 39.0804 115.948 40.3773" fill="#666666"/>
<path id="path5270" d="M135.842 52.528V62.3212H133.006V36.8331H135.842V39.6359C136.435 38.5368 137.18 37.7234 138.08 37.1958C138.989 36.6572 140.072 36.388 141.329 36.3879C143.413 36.388 145.105 37.2782 146.402 39.0588C147.71 40.8394 148.364 43.1806 148.364 46.0823C148.364 48.9839 147.71 51.3251 146.402 53.1057C145.105 54.8863 143.413 55.7766 141.329 55.7766C140.072 55.7766 138.989 55.5128 138.08 54.9852C137.181 54.4466 136.435 53.6278 135.842 52.5286M145.437 46.0823C145.437 43.8511 145.007 42.1035 144.149 40.8394C143.301 39.5645 142.131 38.927 140.639 38.927C139.147 38.927 137.972 39.5645 137.114 40.8394C136.266 42.1034 135.842 43.851 135.842 46.0823C135.842 48.3134 136.266 50.0666 137.114 51.3416C137.972 52.6056 139.147 53.2376 140.639 53.2376C142.131 53.2376 143.301 52.6056 144.149 51.3416C145.007 50.0667 145.437 48.3136 145.437 46.0823Z" fill="#666666"/>
<path id="path5272" d="M160.84 46.0163C158.562 46.0163 156.983 46.2966 156.104 46.8571C155.225 47.4177 154.786 48.3739 154.786 49.7258C154.786 50.8029 155.113 51.6602 155.767 52.2978C156.431 52.9243 157.33 53.2375 158.465 53.2375C160.028 53.2375 161.28 52.644 162.22 51.4569C163.17 50.2589 163.645 48.6707 163.645 46.6923V46.0163L160.84 46.0163ZM166.465 44.7633V55.2983H163.645V52.4956C163.001 53.6167 162.199 54.4465 161.239 54.9851C160.278 55.5127 159.103 55.7765 157.714 55.7765C155.956 55.7765 154.556 55.2489 153.514 54.1937C152.482 53.1276 151.966 51.7041 151.966 49.9236C151.966 47.8463 152.61 46.28 153.897 45.2248C155.195 44.1697 157.126 43.6421 159.691 43.6421H163.645V43.3453C163.645 41.9494 163.216 40.8722 162.358 40.114C161.51 39.3446 160.314 38.9599 158.771 38.9599C157.79 38.9599 156.835 39.0863 155.905 39.3391C154.975 39.5919 154.081 39.9711 153.223 40.4767V37.6739C154.255 37.2453 155.256 36.9265 156.227 36.7177C157.198 36.4979 158.143 36.388 159.062 36.3879C161.545 36.388 163.4 37.0804 164.626 38.4652C165.852 39.8501 166.465 41.9496 166.465 44.7633Z" fill="#666666"/>
<path id="path5274" d="M186.62 44.1539V55.299H183.8V44.2529C183.8 42.5052 183.483 41.1973 182.849 40.329C182.216 39.4607 181.266 39.0266 179.999 39.0266C178.476 39.0266 177.276 39.5487 176.397 40.5929C175.518 41.637 175.079 43.0604 175.079 44.863V55.2991H172.243V36.8339H175.079V39.7026C175.753 38.5925 176.545 37.7626 177.455 37.213C178.374 36.6635 179.432 36.3887 180.627 36.3887C182.599 36.3887 184.091 37.0482 185.103 38.3671C186.114 39.675 186.62 41.6041 186.62 44.1539" fill="#666666"/>
<path id="path5276" d="M199.418 57.0131C198.621 59.2113 197.844 60.6457 197.088 61.3162C196.332 61.9866 195.32 62.3219 194.053 62.3219H191.8V59.7829H193.456C194.232 59.7829 194.835 59.585 195.264 59.1894C195.693 58.7937 196.169 57.8594 196.69 56.3866L197.195 55.0017L190.252 36.8335H193.241L198.605 51.276L203.97 36.8335H206.959L199.418 57.014" fill="#666666"/>
</g>
<g id="text4707">
<path id="path5241" d="M70.5866 26.061C70.5866 25.0697 70.3954 24.3015 70.0129 23.7563C69.6351 23.2111 69.1029 22.9385 68.4164 22.9385C67.7345 22.9385 67.2023 23.2111 66.8199 23.7563C66.4421 24.3015 66.2532 25.0698 66.2532 26.061C66.2532 27.0473 66.4421 27.8131 66.8199 28.3582C67.2024 28.9034 67.7345 29.176 68.4164 29.176C69.103 29.176 69.6351 28.9034 70.0129 28.3582C70.3954 27.813 70.5866 27.0473 70.5866 26.061ZM71.8583 29.2876C71.8583 30.7051 71.5657 31.7583 70.9805 32.4472C70.3954 33.1411 69.4992 33.488 68.292 33.488C67.845 33.488 67.4235 33.4508 67.0272 33.3765C66.6309 33.3071 66.2462 33.1981 65.873 33.0494V31.7186C66.2462 31.9367 66.6148 32.0978 66.9788 32.2019C67.3428 32.3059 67.7137 32.358 68.0916 32.358C68.9256 32.358 69.5499 32.1226 69.9646 31.6517C70.3793 31.1858 70.5866 30.4795 70.5867 29.5328V28.8563C70.324 29.347 69.9877 29.7137 69.5776 29.9566C69.1675 30.1995 68.6768 30.3209 68.1055 30.3209C67.1563 30.3209 66.3915 29.9318 65.8108 29.1537C65.2302 28.3755 64.9399 27.3446 64.9399 26.0609C64.9399 24.7722 65.2302 23.7388 65.8108 22.9607C66.3914 22.1825 67.1562 21.7935 68.1055 21.7935C68.6768 21.7935 69.1675 21.9149 69.5776 22.1577C69.9877 22.4006 70.324 22.7674 70.5867 23.2581V21.9942H71.8584L71.8583 29.2876Z" fill="#666666"/>
<path id="path5243" d="M81.0983 25.8165V26.4856H75.2513C75.3065 27.4273 75.5692 28.1459 76.0392 28.6416C76.5137 29.1322 77.1726 29.3776 78.0159 29.3776C78.5043 29.3776 78.9766 29.3131 79.4328 29.1843C79.8935 29.0554 80.3497 28.8621 80.8013 28.6044V29.898C80.3451 30.1062 79.8774 30.2648 79.3982 30.3738C78.919 30.4829 78.4329 30.5374 77.9398 30.5374C76.705 30.5374 75.7258 30.1508 75.0025 29.3776C74.2837 28.6044 73.9243 27.5587 73.9243 26.2403C73.9243 24.8773 74.2653 23.7967 74.9472 22.9988C75.6338 22.1959 76.5575 21.7944 77.7187 21.7944C78.7601 21.7944 79.5825 22.1563 80.1861 22.8799C80.7943 23.5985 81.0983 24.5775 81.0983 25.8165ZM79.8267 25.415C79.8175 24.6666 79.6217 24.0693 79.2393 23.6232C78.8614 23.1772 78.3592 22.9541 77.7325 22.9541C77.0229 22.9541 76.4539 23.1697 76.0254 23.6009C75.6015 24.0321 75.3573 24.6393 75.2928 25.4224L79.8267 25.415Z" fill="#666666"/>
<path id="path5245" d="M89.5931 25.295V30.3208H88.3213V25.3397C88.3213 24.5517 88.1785 23.9619 87.8928 23.5703C87.6072 23.1787 87.1786 22.983 86.6073 22.9829C85.9208 22.983 85.3793 23.2184 84.983 23.6892C84.5868 24.1601 84.3887 24.8019 84.3887 25.6148V30.3208H83.11V21.9942H84.3887V23.2878C84.6928 22.7872 85.0499 22.413 85.4599 22.1652C85.8746 21.9174 86.3515 21.7935 86.8906 21.7935C87.7799 21.7935 88.4526 22.0908 88.9088 22.6856C89.3649 23.2754 89.5931 24.1451 89.5931 25.295Z" fill="#666666"/>
<path id="path5247" d="M98.7643 25.8165V26.4856H92.9173C92.9725 27.4273 93.2352 28.1459 93.7052 28.6416C94.1798 29.1322 94.8386 29.3776 95.6819 29.3776C96.1703 29.3776 96.6426 29.3131 97.0988 29.1843C97.5595 29.0554 98.0157 28.8621 98.4673 28.6044V29.898C98.0111 30.1062 97.5434 30.2648 97.0642 30.3738C96.585 30.4829 96.0989 30.5374 95.6059 30.5374C94.371 30.5374 93.3918 30.1508 92.6685 29.3776C91.9497 28.6044 91.5903 27.5587 91.5903 26.2403C91.5903 24.8773 91.9313 23.7967 92.6132 22.9988C93.2998 22.1959 94.2236 21.7944 95.3848 21.7944C96.4261 21.7944 97.2486 22.1563 97.8521 22.8799C98.4603 23.5985 98.7645 24.5774 98.7645 25.8164M97.4928 25.415C97.4835 24.6666 97.2877 24.0693 96.9053 23.6232C96.5274 23.1772 96.0252 22.9541 95.3986 22.9541C94.6891 22.9541 94.12 23.1697 93.6915 23.6009C93.2676 24.0321 93.0234 24.6393 92.9589 25.4224L97.4929 25.4149" fill="#666666"/>
<path id="path5249" d="M105.31 23.2733C105.167 23.1841 105.01 23.1196 104.84 23.08C104.674 23.0354 104.49 23.0131 104.287 23.0131C103.568 23.0131 103.015 23.2659 102.628 23.7714C102.246 24.272 102.054 24.9931 102.054 25.9348V30.3212H100.776V21.9947H102.054V23.2883C102.322 22.7827 102.669 22.4085 103.098 22.1657C103.527 21.9179 104.047 21.794 104.66 21.7939C104.748 21.794 104.844 21.8014 104.95 21.8162C105.056 21.8262 105.174 21.8435 105.303 21.8683L105.31 23.2733Z" fill="#666666"/>
<path id="path5251" d="M106.657 21.9946H107.929V30.3212H106.657V21.9946ZM106.657 18.7532H107.929V20.4853H106.657V18.7532Z" fill="#666666"/>
<path id="path5253" d="M116.154 22.3139V23.5926C115.795 23.3795 115.433 23.2209 115.069 23.1168C114.71 23.0078 114.346 22.9533 113.977 22.9533C113.152 22.9533 112.512 23.2358 112.056 23.8008C111.6 24.3609 111.371 25.1489 111.371 26.165C111.371 27.1811 111.6 27.9716 112.056 28.5366C112.512 29.0967 113.152 29.3767 113.977 29.3767C114.346 29.3767 114.71 29.3247 115.069 29.2206C115.433 29.1116 115.795 28.9505 116.154 28.7374V30.0012C115.799 30.1797 115.431 30.3135 115.048 30.4027C114.67 30.4919 114.267 30.5365 113.839 30.5365C112.673 30.5365 111.747 30.1425 111.06 29.3544C110.374 28.5664 110.031 27.5033 110.031 26.165C110.031 24.807 110.376 23.7388 111.067 22.9607C111.763 22.1825 112.714 21.7935 113.922 21.7935C114.313 21.7935 114.696 21.8381 115.069 21.9273C115.442 22.0115 115.804 22.1405 116.154 22.3139Z" fill="#666666"/>
<path id="path5255" d="M122.858 18.7532H124.13V30.3212H122.858V18.7532Z" fill="#666666"/>
<path id="path5257" d="M129.783 22.9536C129.101 22.9536 128.562 23.2411 128.166 23.816C127.77 24.386 127.572 25.1691 127.572 26.1654C127.572 27.1616 127.767 27.9471 128.159 28.5222C128.555 29.0921 129.097 29.3771 129.783 29.3771C130.461 29.3771 130.998 29.0897 131.394 28.5147C131.79 27.9398 131.988 27.1567 131.988 26.1654C131.988 25.179 131.79 24.3984 131.394 23.8236C130.997 23.2437 130.461 22.9537 129.783 22.9537M129.783 21.7939C130.889 21.794 131.758 22.1806 132.389 22.9537C133.02 23.7269 133.336 24.7974 133.336 26.1655C133.336 27.5285 133.02 28.599 132.389 29.3772C131.758 30.1504 130.889 30.537 129.783 30.537C128.673 30.537 127.802 30.1504 127.171 29.3772C126.544 28.5991 126.231 27.5285 126.231 26.1655C126.231 24.7975 126.544 23.727 127.171 22.9537C127.802 22.1806 128.673 21.794 129.783 21.7939Z" fill="#666666"/>
<path id="path5259" d="M140.531 26.061C140.531 25.0697 140.34 24.3015 139.958 23.7563C139.58 23.2111 139.048 22.9385 138.361 22.9385C137.679 22.9385 137.147 23.2111 136.764 23.7563C136.387 24.3015 136.198 25.0698 136.198 26.061C136.198 27.0473 136.387 27.8131 136.764 28.3582C137.147 28.9034 137.679 29.176 138.361 29.176C139.048 29.176 139.58 28.9034 139.958 28.3582C140.34 27.813 140.531 27.0473 140.531 26.061ZM141.803 29.2876C141.803 30.7051 141.51 31.7583 140.925 32.4472C140.34 33.1411 139.444 33.488 138.237 33.488C137.79 33.488 137.368 33.4508 136.972 33.3765C136.576 33.3071 136.191 33.1981 135.818 33.0494V31.7186C136.191 31.9367 136.559 32.0978 136.923 32.2019C137.287 32.3059 137.658 32.358 138.036 32.358C138.87 32.358 139.494 32.1226 139.909 31.6517C140.324 31.1858 140.531 30.4795 140.531 29.5328V28.8563C140.269 29.347 139.932 29.7137 139.522 29.9566C139.112 30.1995 138.621 30.3209 138.05 30.3209C137.101 30.3209 136.336 29.9318 135.755 29.1537C135.175 28.3755 134.885 27.3446 134.885 26.0609C134.885 24.7722 135.175 23.7388 135.755 22.9607C136.336 22.1825 137.101 21.7935 138.05 21.7935C138.621 21.7935 139.112 21.9149 139.522 22.1577C139.932 22.4006 140.269 22.7674 140.531 23.2581V21.9942H141.803L141.803 29.2876Z" fill="#666666"/>
<path id="path5261" d="M147.423 22.9536C146.741 22.9536 146.202 23.2411 145.806 23.816C145.41 24.386 145.211 25.1691 145.211 26.1654C145.211 27.1616 145.407 27.9471 145.799 28.5222C146.195 29.0921 146.737 29.3771 147.423 29.3771C148.1 29.3771 148.637 29.0897 149.034 28.5147C149.43 27.9398 149.628 27.1567 149.628 26.1654C149.628 25.179 149.43 24.3984 149.034 23.8236C148.637 23.2437 148.1 22.9537 147.423 22.9537M147.423 21.7939C148.529 21.794 149.398 22.1806 150.029 22.9537C150.66 23.7269 150.976 24.7974 150.976 26.1655C150.976 27.5285 150.66 28.599 150.029 29.3772C149.398 30.1504 148.529 30.537 147.423 30.537C146.313 30.537 145.442 30.1504 144.811 29.3772C144.184 28.5991 143.871 27.5285 143.871 26.1655C143.871 24.7975 144.184 23.727 144.811 22.9537C145.442 22.1806 146.313 21.794 147.423 21.7939Z" fill="#666666"/>
</g>
<g id="g5278">
<path id="path4711" d="M51.7992 18.5727C61.3353 28.8305 61.3353 45.461 51.7992 55.7188C42.2631 65.9765 26.8025 65.9765 17.2664 55.7188C7.73032 45.461 7.73031 28.8305 17.2664 18.5727C26.8025 8.31502 42.2631 8.31503 51.7992 18.5727Z" fill="url(#paint0_linear_1804_1042)"/>
<path id="path4713" d="M51.9189 33.233C57.7252 39.4786 57.7252 49.6044 51.9189 55.8501C46.1127 62.0957 36.6992 62.0957 30.8929 55.8501C25.0867 49.6044 25.0867 39.4786 30.8929 33.233C36.6992 26.9873 46.1127 26.9873 51.9189 33.233Z" fill="#EEEEEE"/>
</g>
</g>
</g>
<defs>
<linearGradient id="paint0_linear_1804_1042" x1="18.2407" y1="19.3217" x2="54.2645" y2="53.0887" gradientUnits="userSpaceOnUse">
<stop stop-color="#2294FE"/>
<stop offset="1" stop-color="#014F96"/>
</linearGradient>
</defs>
</svg>
